<?xml version="1.0" encoding="utf-8"?>
<!-- Generator: Adobe Illustrator 16.0.0, SVG Export Plug-In . SVG Version: 6.00 Build 0)  -->
<!DOCTYPE svg PUBLIC "-//W3C//DTD SVG 1.1//EN" "http://www.w3.org/Graphics/SVG/1.1/DTD/svg11.dtd">
<svg version="1.1" id="Calque_1" xmlns="http://www.w3.org/2000/svg" xmlns:xlink="http://www.w3.org/1999/xlink" x="0px" y="0px"
	 width="2000px" height="2000px" viewBox="0 0 2000 2000" enable-background="new 0 0 2000 2000" xml:space="preserve">
<g>
	<path fill="#898192" d="M1662.302,1135.945c-8.977,0-14.026-1.821-15.437-5.569c-4.085-10.868,28.31-28.874,38.955-34.791
		c26.866-14.933,63.808-31.484,104.019-46.605c62.267-23.415,119.476-38.545,145.746-38.545c8.977,0,14.024,1.821,15.434,5.568
		c4.089,10.867-28.308,28.874-38.953,34.792c-26.866,14.933-63.807,31.483-104.018,46.604
		C1745.782,1120.815,1688.573,1135.945,1662.302,1135.945z M1935.585,1014.435c-25.432,0-83.437,15.387-144.338,38.289
		c-40.033,15.054-76.784,31.518-103.483,46.357c-38.902,21.624-37.448,29.105-37.154,29.887c0.263,0.698,1.883,2.978,11.692,2.978
		c25.433,0,83.438-15.388,144.338-38.29c40.032-15.054,76.783-31.517,103.482-46.357c38.903-21.624,37.446-29.104,37.152-29.887
		C1947.012,1016.713,1945.393,1014.435,1935.585,1014.435z"/>
	<path fill="#898192" d="M1639.916,1162.283c-23.828,0-38.354-5.136-42.007-14.854c-6.82-18.138,26.038-43.75,46.232-57.403
		c34.33-23.21,82.596-47.033,135.906-67.081c68.657-25.816,134.835-41.229,177.026-41.229c23.828,0,38.355,5.136,42.01,14.853
		c6.821,18.138-26.038,43.751-46.232,57.403c-34.332,23.212-82.599,47.035-135.909,67.08
		C1748.285,1146.87,1682.107,1162.283,1639.916,1162.283z M1957.074,984.717c-41.851,0-107.633,15.341-175.97,41.037
		c-53.098,19.967-101.142,43.675-135.283,66.758c-33.116,22.391-49.556,42.022-45.104,53.862
		c3.174,8.445,16.729,12.909,39.198,12.909c41.85,0,107.634-15.342,175.97-41.039c53.098-19.964,101.143-43.672,135.286-66.756
		c33.117-22.391,49.557-42.023,45.104-53.862C1993.1,989.181,1979.544,984.717,1957.074,984.717z"/>
	<path fill="#898192" d="M1642.479,1150.117c-16.03,0-25.326-3.11-27.631-9.244c-3.725-9.9,11.982-26.351,44.229-46.321
		c32.047-19.847,76.651-40.913,125.596-59.316c68.372-25.711,133.407-41.683,169.726-41.683c16.026,0,25.321,3.109,27.628,9.24
		c3.725,9.9-11.983,26.353-44.23,46.324c-32.048,19.848-76.651,40.914-125.596,59.319
		C1743.828,1134.146,1678.795,1150.117,1642.479,1150.117z M1954.397,994.553c-36.206,0-101.106,15.947-169.374,41.618
		c-48.885,18.382-93.428,39.417-125.421,59.231c-31.334,19.406-47.306,35.852-43.819,45.119c2.113,5.623,11.344,8.596,26.695,8.596
		c36.204,0,101.103-15.946,169.369-41.616c48.885-18.383,93.427-39.42,125.421-59.234c31.335-19.407,47.308-35.854,43.821-45.122
		C1978.975,997.524,1969.745,994.553,1954.397,994.553z"/>
	<path fill="#898192" d="M1645.389,1145.682c-12.592,0-19.88-2.406-21.663-7.152c-3.178-8.442,12.16-23.186,43.188-41.514
		c30.819-18.205,73.486-37.894,120.142-55.438c67.595-25.418,132.396-41.843,165.087-41.843c12.588,0,19.876,2.406,21.66,7.15
		c3.177,8.445-12.161,23.19-43.188,41.52c-30.819,18.207-73.486,37.895-120.143,55.438
		C1742.881,1129.259,1678.082,1145.682,1645.389,1145.682z M1952.142,1000.734c-32.581,0-97.243,16.399-164.735,41.778
		c-46.603,17.525-89.214,37.187-119.984,55.363c-30.118,17.792-45.704,32.481-42.761,40.302c1.599,4.255,8.767,6.504,20.728,6.504
		c32.583,0,97.244-16.397,164.73-41.774c46.604-17.524,89.215-37.186,119.985-55.363c30.118-17.793,45.704-32.484,42.762-40.308
		C1971.266,1002.983,1964.1,1000.734,1952.142,1000.734z"/>
	<circle fill="#6ACABA" cx="1793.925" cy="1072" r="68.554"/>
	<g>
		<path fill="none" d="M1757.395,1044.141c4.156,0,7.527-3.369,7.527-7.531c0-4.156-3.371-7.527-7.527-7.527
			s-7.529,3.371-7.529,7.527C1749.865,1040.771,1753.238,1044.141,1757.395,1044.141z"/>
		<path fill="none" d="M1855.656,1089.521c-11.553,0-20.918-9.365-20.918-20.92c0-11.549,9.365-20.918,20.918-20.918
			c0.822,0,1.631,0.06,2.429,0.152c-9.773-25.935-34.806-44.391-64.159-44.391c-19.639,0-37.335,8.271-49.833,21.503
			c6.621-5.76,15.264-9.255,24.728-9.255c20.82,0,37.703,16.883,37.703,37.705c0,20.82-16.883,37.703-37.703,37.703
			c-20.822,0-37.705-16.883-37.705-37.703c0-5.484,1.181-10.69,3.287-15.392c-5.736,10.021-9.031,21.619-9.031,33.993
			c0,37.859,30.691,68.555,68.555,68.555c32.003,0,58.879-21.933,66.432-51.583
			C1858.844,1089.319,1857.275,1089.521,1855.656,1089.521z"/>
		<path fill="none" d="M1777.959,1066.67c7.768,0,14.064-6.297,14.064-14.061c0-7.77-6.297-14.066-14.064-14.066
			c-7.764,0-14.062,6.297-14.062,14.066C1763.896,1060.373,1770.195,1066.67,1777.959,1066.67z"/>
		<path opacity="0.5" fill="#13073F" d="M1834.738,1068.602c0,11.555,9.365,20.92,20.918,20.92c1.619,0,3.188-0.202,4.701-0.55
			c1.383-5.429,2.121-11.113,2.121-16.972c0-8.508-1.561-16.647-4.394-24.164c-0.798-0.093-1.606-0.152-2.429-0.152
			C1844.104,1047.684,1834.738,1057.053,1834.738,1068.602z"/>
		<path opacity="0.5" fill="#13073F" d="M1768.82,1091.102c20.82,0,37.703-16.883,37.703-37.703
			c0-20.822-16.883-37.705-37.703-37.705c-9.464,0-18.106,3.495-24.728,9.255c-3.722,3.941-6.979,8.321-9.69,13.059
			c-2.106,4.701-3.287,9.907-3.287,15.392C1731.115,1074.219,1747.998,1091.102,1768.82,1091.102z M1777.959,1038.543
			c7.768,0,14.064,6.297,14.064,14.066c0,7.764-6.297,14.061-14.064,14.061c-7.764,0-14.062-6.297-14.062-14.061
			C1763.896,1044.84,1770.195,1038.543,1777.959,1038.543z M1757.395,1029.082c4.156,0,7.527,3.371,7.527,7.527
			c0,4.162-3.371,7.531-7.527,7.531s-7.529-3.369-7.529-7.531C1749.865,1032.453,1753.238,1029.082,1757.395,1029.082z"/>
	</g>
	<path fill="#898192" d="M1640.095,1162.242c-19.188,0.001-37.819-3.196-42.186-14.812l2.809-1.055
		c4.45,11.838,29.753,15.771,69.415,10.792c40.894-5.133,92.657-18.956,145.753-38.923c53.098-19.964,101.143-43.672,135.286-66.756
		c33.117-22.391,49.557-42.023,45.104-53.862l2.809-1.057c6.821,18.138-26.038,43.75-46.232,57.403
		c-34.332,23.212-82.599,47.035-135.909,67.08c-53.311,20.046-105.315,33.93-146.436,39.091
		C1661.812,1161.235,1650.865,1162.242,1640.095,1162.242z"/>
	<path fill="#898192" d="M1662.65,1135.914c-9.112,0-14.396-1.846-15.785-5.538l3.744-1.408c0.294,0.781,4.128,7.369,47.642-1.998
		c29.864-6.429,68.357-18.26,108.389-33.314c40.032-15.054,76.783-31.517,103.482-46.357c38.903-21.624,37.446-29.104,37.152-29.887
		l3.744-1.408c2.713,7.211-10.393,18.917-38.953,34.792c-26.866,14.933-63.807,31.483-104.018,46.604
		c-40.21,15.121-78.904,27.012-108.955,33.481C1683.504,1134.236,1671.337,1135.914,1662.65,1135.914z"/>
	<path fill="#898192" d="M1642.56,1150.115c-15.843,0-25.408-3.11-27.712-9.242l0.936-0.352c3.482,9.267,26.33,11.112,62.688,5.063
		c37.122-6.177,84.489-19.702,133.376-38.084c48.885-18.383,93.427-39.42,125.421-59.234c31.335-19.407,47.308-35.854,43.821-45.122
		l0.936-0.352c3.725,9.9-11.983,26.353-44.23,46.324c-32.048,19.848-76.651,40.914-125.596,59.319
		c-48.945,18.404-96.379,31.948-133.563,38.135C1664.397,1148.94,1652.292,1150.114,1642.56,1150.115z"/>
	<path fill="#898192" d="M1645.523,1145.668c-12.517,0-20.014-2.391-21.798-7.139l0.936-0.352c2.94,7.823,24.34,8.604,58.722,2.144
		c35.121-6.602,80.131-19.889,126.736-37.414c46.604-17.524,89.215-37.186,119.985-55.363
		c30.118-17.793,45.704-32.484,42.762-40.308l0.936-0.352c3.177,8.445-12.161,23.19-43.188,41.52
		c-30.819,18.207-73.486,37.895-120.143,55.438c-46.658,17.546-91.727,30.85-126.903,37.461
		C1668.062,1144.219,1655.271,1145.668,1645.523,1145.668z"/>
</g>
<circle fill="#FF8CA7" cx="1785" cy="1679" r="12"/>
<circle fill="#FF8CA7" cx="102" cy="404" r="12"/>
<g>
	<path fill="#DF4F4F" d="M599.704,1289.059c-8.323,5.859-10.32,17.358-4.46,25.682c5.858,8.321,17.354,10.318,25.679,4.459
		c8.321-5.86,48.175-44.008,42.315-52.332C657.378,1258.545,608.026,1283.199,599.704,1289.059z"/>
	<path fill="#FFE8B0" d="M608.093,1289.555c-5.958,4.194-7.387,12.426-3.192,18.384c4.195,5.959,12.427,7.388,18.386,3.193
		c5.957-4.195,34.489-31.505,30.293-37.465C649.383,1267.709,614.052,1285.359,608.093,1289.555z"/>
	<circle fill="#DF4F4F" cx="610.313" cy="1304.129" r="18.43"/>
	<g>
		<path fill="none" d="M628.08,1300.254c-1.838,1.293-4.381,0.852-5.675-0.987c-1.296-1.839-0.854-4.381,0.986-5.675
			c0.476-0.335,0.998-0.549,1.533-0.658c-5.98-7.812-17.103-9.591-25.221-3.875c-2.206,1.553-3.953,3.509-5.242,5.69
			c2.538-0.554,5.274,0.413,6.863,2.671c2.114,3.004,1.394,7.155-1.61,9.271c-2.354,1.658-5.408,1.567-7.64,0.008
			c0.393,2.807,1.425,5.565,3.169,8.042c5.858,8.321,17.354,10.318,25.679,4.459c6.284-4.426,8.955-12.065,7.366-19.126
			C628.217,1300.132,628.157,1300.199,628.08,1300.254z M608.545,1314.432c-1.5,1.056-3.572,0.696-4.63-0.805
			c-1.056-1.499-0.695-3.573,0.806-4.629c1.5-1.056,3.572-0.695,4.628,0.803C610.406,1311.303,610.045,1313.375,608.545,1314.432z
			 M613.574,1300.764c-1.091,0.77-2.597,0.508-3.364-0.584c-0.768-1.09-0.506-2.597,0.584-3.362
			c1.092-0.768,2.597-0.507,3.364,0.583S614.663,1299.998,613.574,1300.764z"/>
		<path fill="#FFE8B0" d="M599.715,1306.69c3.004-2.115,3.725-6.267,1.61-9.271c-1.589-2.258-4.326-3.225-6.863-2.671
			c-2.126,3.6-2.964,7.823-2.387,11.949C594.307,1308.258,597.36,1308.349,599.715,1306.69z"/>
		<circle fill="#FFE8B0" cx="606.633" cy="1311.715" r="3.322"/>
		<circle fill="#FFE8B0" cx="612.184" cy="1298.791" r="2.414"/>
		<path fill="#FFE8B0" d="M622.405,1299.267c1.294,1.839,3.837,2.28,5.675,0.987c0.077-0.055,0.137-0.122,0.208-0.181
			c-0.515-2.289-1.472-4.519-2.907-6.556c-0.144-0.204-0.306-0.387-0.457-0.584c-0.535,0.109-1.058,0.323-1.533,0.658
			C621.552,1294.886,621.109,1297.428,622.405,1299.267z"/>
	</g>
	<path fill="#13073F" d="M610.337,1324.062C610.336,1324.062,610.336,1324.062,610.337,1324.062c-1.145,0-2.3-0.101-3.435-0.298
		c-10.827-1.881-18.107-12.219-16.227-23.046c1.664-9.574,9.914-16.522,19.616-16.522c1.143,0,2.297,0.1,3.432,0.297
		c10.828,1.882,18.106,12.221,16.226,23.047C628.287,1317.113,620.038,1324.062,610.337,1324.062z M610.292,1287.196
		c-8.24,0-15.247,5.903-16.66,14.036c-1.597,9.197,4.587,17.979,13.785,19.577c0.965,0.167,1.948,0.253,2.92,0.253
		c8.239,0,15.245-5.902,16.658-14.036c1.598-9.196-4.586-17.979-13.784-19.578C612.245,1287.281,611.263,1287.196,610.292,1287.196z
		"/>
</g>
<g>
	<circle fill="#42395F" cx="90" cy="1651" r="90"/>
	<circle fill="#DF4F4F" cx="90" cy="1651" r="53.25"/>
	<path fill="#ED6F7D" d="M90,1597.75c-4.449,0-8.768,0.554-12.898,1.582c-11.381,9.766-18.602,24.244-18.602,40.418
		c0,29.409,23.841,53.249,53.25,53.249c4.449,0,8.768-0.554,12.898-1.582c11.381-9.766,18.602-24.243,18.602-40.417
		C143.25,1621.59,119.409,1597.75,90,1597.75z"/>
</g>
<g>
	<path fill="#42395F" d="M345.522,591c-23.159,0-42-18.841-42-42s18.841-42,42-42s42,18.841,42,42S368.681,591,345.522,591z
		 M345.522,511c-20.953,0-38,17.047-38,38s17.047,38,38,38s38-17.047,38-38S366.476,511,345.522,511z"/>
	<circle fill="#2A5CA7" cx="345.522" cy="549" r="26.429"/>
	<circle fill="#4D93AF" cx="341.13" cy="545.352" r="17.793"/>
</g>
<g>
	<circle fill="#FFE8B0" cx="418" cy="1866" r="13"/>
	<path fill="#42395F" d="M418,1900c-18.748,0-34-15.252-34-34s15.252-34,34-34s34,15.252,34,34S436.748,1900,418,1900z M418,1840
		c-14.336,0-26,11.663-26,26s11.664,26,26,26s26-11.663,26-26S432.336,1840,418,1840z"/>
</g>
<circle fill="#DF4F4F" cx="1754" cy="1643" r="4"/>
<circle fill="#DF4F4F" cx="219" cy="893" r="10"/>
<circle fill="#DF4F4F" cx="1012" cy="294" r="15"/>
<circle fill="#6ACABA" cx="1696" cy="1662" r="8"/>
<circle fill="#6ACABA" cx="776.5" cy="850" r="12.5"/>
<circle fill="#2A5CA7" cx="1194.5" cy="1528" r="12.5"/>
<circle fill="#2A5CA7" cx="1163" cy="1495" r="5"/>
<circle fill="#2A5CA7" cx="1234" cy="1461" r="5"/>
<circle fill="#FFE8B0" cx="801" cy="871" r="6"/>
<circle fill="#6ACABA" cx="138" cy="381" r="8"/>
<circle fill="#6ACABA" cx="237" cy="841" r="4"/>
<g>
	<circle fill="#6ACABA" cx="1716" cy="285" r="20"/>
	<path fill="#42395F" d="M1716,346c-33.636,0-61-27.364-61-61s27.364-61,61-61s61,27.364,61,61S1749.636,346,1716,346z M1716,226
		c-32.532,0-59,26.467-59,59s26.468,59,59,59s59-26.467,59-59S1748.532,226,1716,226z"/>
	<path fill="#42395F" d="M1716,333c-26.467,0-48-21.533-48-48s21.533-48,48-48s48,21.533,48,48S1742.467,333,1716,333z M1716,241
		c-24.262,0-44,19.738-44,44s19.738,44,44,44s44-19.738,44-44S1740.262,241,1716,241z"/>
	<circle fill="#DF4F4F" cx="1686.521" cy="337" r="5"/>
	<circle fill="#FF8CA7" cx="1762.521" cy="283" r="8"/>
</g>
<g>
	<path fill="#42395F" d="M1569,676c-43.561,0-79-35.439-79-79s35.439-79,79-79s79,35.439,79,79S1612.561,676,1569,676z M1569,526
		c-39.149,0-71,31.851-71,71s31.851,71,71,71s71-31.851,71-71S1608.149,526,1569,526z"/>
	<circle fill="#FFFAE6" cx="1567.026" cy="595.025" r="39.475"/>
	<g>
		<path fill="none" d="M1567.026,555.551c-6.493,0-12.614,1.578-18.018,4.355c5.498,1.976,9.438,7.221,9.438,13.398
			c0,7.871-6.381,14.253-14.25,14.253c-5.925,0-11.002-3.615-13.153-8.758c-2.236,4.951-3.491,10.44-3.491,16.226
			c0,21.275,16.828,38.609,37.9,39.437c-0.481-1.082-0.754-2.278-0.754-3.539c0-4.816,3.903-8.724,8.721-8.724
			c4.82,0,8.727,3.907,8.727,8.724c0,0.198-0.017,0.391-0.029,0.586c14.312-5.928,24.385-20.026,24.385-36.483
			C1606.501,573.225,1588.828,555.551,1567.026,555.551z M1559.983,610.058c-2.854,0-5.17-2.317-5.17-5.173
			c0-2.854,2.315-5.17,5.17-5.17c2.857,0,5.172,2.315,5.172,5.17C1565.155,607.74,1562.841,610.058,1559.983,610.058z
			 M1575.773,586.344c-3.929,0-7.114-3.187-7.114-7.117c0-3.93,3.186-7.115,7.114-7.115c3.932,0,7.116,3.186,7.116,7.115
			C1582.89,583.157,1579.705,586.344,1575.773,586.344z"/>
		<path fill="#6ACABA" d="M1544.196,587.558c7.869,0,14.25-6.382,14.25-14.253c0-6.178-3.939-11.423-9.438-13.398
			c-7.924,4.073-14.285,10.744-17.966,18.893C1533.194,583.942,1538.271,587.558,1544.196,587.558z"/>
		<circle fill="#6ACABA" cx="1575.773" cy="579.228" r="7.116"/>
		<circle fill="#6ACABA" cx="1559.983" cy="604.886" r="5.171"/>
		<path fill="#6ACABA" d="M1573.419,622.199c-4.817,0-8.721,3.907-8.721,8.724c0,1.261,0.272,2.457,0.754,3.539
			c0.523,0.021,1.046,0.04,1.574,0.04c5.346,0,10.44-1.068,15.09-2.993c0.013-0.195,0.029-0.388,0.029-0.586
			C1582.146,626.106,1578.239,622.199,1573.419,622.199z"/>
	</g>
</g>
<g>
	<circle fill="#FFFAE6" cx="310" cy="69.999" r="60"/>
	<g>
		<path fill="none" d="M343.297,81.448c0-11.046,8.954-20,19.996-20c2.173,0,4.259,0.357,6.217,0.997
			c-1.462-11.629-6.238-22.225-13.373-30.798c-0.256,0.119-0.539,0.19-0.84,0.19c-1.104,0-2-0.896-2-2
			c0-0.381,0.113-0.734,0.298-1.038c-8.891-9.404-20.782-15.938-34.151-18.052c1.141,1.092,1.854,2.626,1.854,4.329
			c0,3.312-2.686,6-6.001,6c-3.312,0-5.999-2.688-5.999-6c0-2.104,1.086-3.953,2.727-5.024C311.351,10.029,310.679,10,310,10
			c-2.849,0-5.646,0.212-8.39,0.596c0.433,0.639,0.687,1.411,0.687,2.241c0,2.208-1.79,4-4.002,4c-2.207,0-3.998-1.792-3.998-4
			c0-0.264,0.029-0.52,0.078-0.769c-2.065,0.556-4.084,1.223-6.055,1.987c4.073,5.72,6.476,12.71,6.476,20.265
			c0,19.331-15.671,35.003-34.995,35.003c-3.385,0-6.653-0.49-9.749-1.386c-0.023,0.686-0.052,1.371-0.052,2.062
			c0,1.296,0.055,2.578,0.136,3.853c0.054-0.003,0.105-0.016,0.16-0.016c1.742,0,3.152,1.411,3.152,3.151
			c0,1.546-1.117,2.828-2.588,3.094c2.463,14.547,10.146,27.317,21.074,36.297c0.357-0.334,0.834-0.543,1.363-0.543
			c1.105,0,2,0.896,2,2c0,0.337-0.091,0.649-0.238,0.928C284.901,125.827,296.959,130,310,130c1.107,0,2.206-0.035,3.298-0.094
			c-0.09-0.293-0.153-0.598-0.153-0.92c0-1.74,1.411-3.151,3.15-3.151c1.742,0,3.152,1.411,3.152,3.151
			c0,0.093-0.02,0.181-0.027,0.272c6.873-1.084,13.359-3.33,19.248-6.539c-0.329-0.498-0.523-1.093-0.523-1.733
			c0-1.74,1.411-3.151,3.15-3.151c1.168,0,2.176,0.642,2.72,1.585c6.901-4.759,12.757-10.92,17.152-18.081
			C351.125,100.277,343.297,91.779,343.297,81.448z M352.295,40.127c4.344,0,7.861,3.52,7.861,7.858c0,4.34-3.518,7.862-7.861,7.862
			c-4.339,0-7.857-3.522-7.857-7.862C344.438,43.646,347.956,40.127,352.295,40.127z M260.385,84.985
			c0-2.712,2.199-4.911,4.911-4.911c2.715,0,4.913,2.199,4.913,4.911s-2.198,4.913-4.913,4.913
			C262.584,89.898,260.385,87.697,260.385,84.985z M269.296,105.834c-1.932,0-3.499-1.568-3.499-3.5c0-1.933,1.567-3.5,3.499-3.5
			c1.935,0,3.501,1.567,3.501,3.5C272.797,104.266,271.23,105.834,269.296,105.834z M338.296,27.076
			c2.715,0,4.913,2.199,4.913,4.911s-2.198,4.913-4.913,4.913c-2.712,0-4.911-2.201-4.911-4.913S335.584,27.076,338.296,27.076z
			 M321.296,24.836c1.935,0,3.501,1.567,3.501,3.5c0,1.932-1.566,3.5-3.501,3.5c-1.932,0-3.499-1.568-3.499-3.5
			C317.797,26.404,319.364,24.836,321.296,24.836z M323.295,35.171c5.977,0,10.816,4.841,10.816,10.814
			c0,5.975-4.84,10.818-10.816,10.818c-5.971,0-10.812-4.844-10.812-10.818C312.482,40.013,317.324,35.171,323.295,35.171z
			 M313.297,71.835c0,2.208-1.79,4-4.002,4c-2.207,0-3.998-1.792-3.998-4c0-2.209,1.791-4,3.998-4
			C311.507,67.835,313.297,69.626,313.297,71.835z M304.296,34.836c1.382,0,2.501,1.12,2.501,2.5s-1.119,2.5-2.501,2.5
			c-1.38,0-2.499-1.12-2.499-2.5S302.916,34.836,304.296,34.836z M298.296,57.075c2.715,0,4.913,2.199,4.913,4.911
			c0,2.712-2.198,4.913-4.913,4.913c-2.712,0-4.911-2.201-4.911-4.913C293.385,59.274,295.584,57.075,298.296,57.075z
			 M300.29,124.456c-13.802,0-24.995-11.196-24.995-25.008c0-13.808,11.193-25,24.995-25c13.817,0,25.005,11.193,25.005,25
			C325.295,113.26,314.107,124.456,300.29,124.456z M328.297,78.835c0-1.104,0.896-2,2-2c1.105,0,2,0.896,2,2c0,1.104-0.895,2-2,2
			C329.192,80.835,328.297,79.939,328.297,78.835z M333.296,99.138c-1.739,0-3.15-1.412-3.15-3.151c0-1.74,1.411-3.151,3.15-3.151
			c1.742,0,3.152,1.411,3.152,3.151C336.448,97.726,335.038,99.138,333.296,99.138z M338.296,63.138c-1.739,0-3.15-1.412-3.15-3.151
			c0-1.74,1.411-3.151,3.15-3.151c1.742,0,3.152,1.411,3.152,3.151C341.448,61.726,340.038,63.138,338.296,63.138z M343.297,107.834
			c-1.104,0-2-0.896-2-2s0.896-2,2-2c1.105,0,2,0.896,2,2S344.402,107.834,343.297,107.834z"/>
		<path fill="#C4BDBC" d="M294.796,34.32c0-7.555-2.403-14.545-6.476-20.265c-21.811,8.458-37.436,29.288-38.268,53.882
			c3.096,0.896,6.364,1.386,9.749,1.386C279.125,69.323,294.796,53.65,294.796,34.32z"/>
		<path fill="#C4BDBC" d="M323.295,56.804c5.977,0,10.816-4.844,10.816-10.818c0-5.973-4.84-10.814-10.816-10.814
			c-5.971,0-10.812,4.841-10.812,10.814C312.482,51.96,317.324,56.804,323.295,56.804z"/>
		<path fill="#C4BDBC" d="M343.297,81.448c0,10.331,7.829,18.829,17.871,19.891c5.599-9.122,8.832-19.853,8.832-31.34
			c0-2.561-0.179-5.078-0.49-7.554c-1.958-0.64-4.044-0.997-6.217-0.997C352.251,61.448,343.297,70.402,343.297,81.448z"/>
		<path fill="#C4BDBC" d="M300.29,74.448c-13.802,0-24.995,11.193-24.995,25c0,13.812,11.193,25.008,24.995,25.008
			c13.817,0,25.005-11.196,25.005-25.008C325.295,85.641,314.107,74.448,300.29,74.448z"/>
		<path fill="#C4BDBC" d="M352.295,55.848c4.344,0,7.861-3.522,7.861-7.862c0-4.339-3.518-7.858-7.861-7.858
			c-4.339,0-7.857,3.52-7.857,7.858C344.438,52.325,347.956,55.848,352.295,55.848z"/>
		<circle fill="#C4BDBC" cx="338.296" cy="31.988" r="4.912"/>
		<circle fill="#C4BDBC" cx="298.296" cy="61.987" r="4.912"/>
		<path fill="#C4BDBC" d="M309.297,15.075c0,3.312,2.687,6,5.999,6c3.315,0,6.001-2.688,6.001-6c0-1.703-0.713-3.237-1.854-4.329
			c-2.427-0.384-4.905-0.611-7.419-0.695C310.383,11.122,309.297,12.971,309.297,15.075z"/>
		<circle fill="#C4BDBC" cx="265.297" cy="84.985" r="4.912"/>
		<circle fill="#C4BDBC" cx="338.296" cy="59.987" r="3.151"/>
		<circle fill="#C4BDBC" cx="333.296" cy="95.986" r="3.151"/>
		<path fill="#C4BDBC" d="M316.296,125.834c-1.739,0-3.15,1.411-3.15,3.151c0,0.322,0.062,0.627,0.153,0.92
			c2.071-0.112,4.113-0.331,6.123-0.648c0.008-0.091,0.027-0.179,0.027-0.272C319.448,127.245,318.038,125.834,316.296,125.834z"/>
		<path fill="#C4BDBC" d="M253.448,76.987c0-1.74-1.41-3.151-3.152-3.151c-0.055,0-0.105,0.013-0.16,0.016
			c0.134,2.108,0.378,4.186,0.724,6.229C252.332,79.815,253.448,78.533,253.448,76.987z"/>
		<circle fill="#C4BDBC" cx="330.297" cy="78.835" r="2"/>
		<circle fill="#C4BDBC" cx="343.297" cy="105.834" r="2"/>
		<path fill="#C4BDBC" d="M273.297,115.834c-0.528,0-1.005,0.209-1.363,0.543c1.012,0.832,2.06,1.619,3.125,2.384
			c0.147-0.279,0.238-0.591,0.238-0.928C275.297,116.73,274.402,115.834,273.297,115.834z"/>
		<path fill="#C4BDBC" d="M355.297,31.836c0.301,0,0.583-0.071,0.84-0.19c-0.814-0.979-1.667-1.923-2.542-2.848
			c-0.185,0.304-0.298,0.657-0.298,1.038C353.297,30.941,354.192,31.836,355.297,31.836z"/>
		<path fill="#C4BDBC" d="M341.296,117.834c-1.739,0-3.15,1.411-3.15,3.151c0,0.641,0.194,1.235,0.523,1.733
			c1.845-1.006,3.626-2.112,5.348-3.299C343.472,118.477,342.464,117.834,341.296,117.834z"/>
		<circle fill="#C4BDBC" cx="321.296" cy="28.336" r="3.5"/>
		<circle fill="#C4BDBC" cx="269.296" cy="102.335" r="3.5"/>
		<path fill="#C4BDBC" d="M298.295,16.837c2.212,0,4.002-1.792,4.002-4c0-0.83-0.253-1.602-0.687-2.241
			c-2.463,0.345-4.878,0.837-7.236,1.472c-0.049,0.249-0.078,0.505-0.078,0.769C294.297,15.045,296.088,16.837,298.295,16.837z"/>
		<circle fill="#C4BDBC" cx="304.296" cy="37.336" r="2.5"/>
		<path fill="#C4BDBC" d="M305.297,71.835c0,2.208,1.791,4,3.998,4c2.212,0,4.002-1.792,4.002-4c0-2.209-1.79-4-4.002-4
			C307.088,67.835,305.297,69.626,305.297,71.835z"/>
	</g>
</g>
</svg>
