<?xml version="1.0" encoding="utf-8"?>
<!-- Generator: Adobe Illustrator 16.0.0, SVG Export Plug-In . SVG Version: 6.00 Build 0)  -->
<!DOCTYPE svg PUBLIC "-//W3C//DTD SVG 1.1//EN" "http://www.w3.org/Graphics/SVG/1.1/DTD/svg11.dtd">
<svg version="1.1" id="Calque_1" xmlns="http://www.w3.org/2000/svg" xmlns:xlink="http://www.w3.org/1999/xlink" x="0px" y="0px"
	 width="600px" height="600px" viewBox="0 0 600 600" enable-background="new 0 0 600 600" xml:space="preserve">
<rect fill="#13073F" width="600" height="600"/>
<g>
	<circle fill="#FFFAE6" cx="531.395" cy="468.652" r="1.958"/>
	<circle fill="#FFFAE6" cx="410.336" cy="252.006" r="1.958"/>
	<circle fill="#FFFAE6" cx="274.524" cy="389.123" r="1.959"/>
	<circle fill="#FFFAE6" cx="586.63" cy="361.7" r="1.959"/>
	<circle fill="#FFFAE6" cx="385.524" cy="180.183" r="1.959"/>
	<circle fill="#FFFAE6" cx="249.712" cy="312.076" r="1.959"/>
	<circle fill="#FFFAE6" cx="207.689" cy="467.182" r="1.958"/>
	<circle fill="#FFFAE6" cx="410.989" cy="553.012" r="1.306"/>
	<circle fill="#FFFAE6" cx="519.377" cy="415.895" r="1.306"/>
	<circle fill="#FFFAE6" cx="554.636" cy="299.671" r="1.306"/>
	<circle fill="#FFFAE6" cx="596.424" cy="259.188" r="1.306"/>
	<circle fill="#FFFAE6" cx="414.907" cy="470.741" r="1.306"/>
	<circle fill="#FFFAE6" cx="589.895" cy="180.836" r="1.306"/>
	<circle fill="#FFFAE6" cx="351.572" cy="434.829" r="0.653"/>
	<circle fill="#FFFAE6" cx="433.842" cy="470.088" r="0.653"/>
	<circle fill="#FFFAE6" cx="279.748" cy="594.146" r="0.653"/>
	<circle fill="#FFFAE6" cx="493.913" cy="361.7" r="0.653"/>
	<circle fill="#FFFAE6" cx="580.101" cy="517.1" r="0.653"/>
	<circle fill="#FFFAE6" cx="479.548" cy="236.336" r="0.652"/>
	<circle fill="#FFFAE6" cx="291.5" cy="446.582" r="0.653"/>
	<circle fill="#FFFAE6" cx="286.277" cy="267.677" r="0.653"/>
	<circle fill="#FFFAE6" cx="493.913" cy="440.053" r="0.653"/>
	<circle fill="#FFFAE6" cx="565.736" cy="352.559" r="0.653"/>
	<circle fill="#FFFAE6" cx="335.248" cy="478.576" r="1.306"/>
	<circle fill="#FFFAE6" cx="335.248" cy="337.541" r="1.306"/>
	<circle fill="#FFFAE6" cx="452.777" cy="281.389" r="1.306"/>
	<circle fill="#FFFAE6" cx="306.519" cy="562.152" r="1.306"/>
	<circle fill="#FFFAE6" cx="523.295" cy="579.129" r="1.306"/>
	<circle fill="#FFFAE6" cx="261.236" cy="577.823" r="1.306"/>
	<circle fill="#FFFAE6" cx="63.395" cy="506.652" r="1.958"/>
	<circle fill="#FFFAE6" cx="50.336" cy="252.006" r="1.958"/>
	<circle fill="#FFFAE6" cx="226.63" cy="361.7" r="1.958"/>
	<circle fill="#FFFAE6" cx="25.524" cy="180.183" r="1.959"/>
	<circle fill="#FFFAE6" cx="50.989" cy="553.012" r="1.306"/>
	<circle fill="#FFFAE6" cx="159.377" cy="415.895" r="1.306"/>
	<circle fill="#FFFAE6" cx="194.636" cy="299.671" r="1.306"/>
	<circle fill="#FFFAE6" cx="236.425" cy="259.188" r="1.306"/>
	<circle fill="#FFFAE6" cx="54.907" cy="470.741" r="1.306"/>
	<circle fill="#FFFAE6" cx="229.895" cy="180.836" r="1.306"/>
	<circle fill="#FFFAE6" cx="27.572" cy="402.829" r="0.653"/>
	<circle fill="#FFFAE6" cx="73.842" cy="470.088" r="0.653"/>
	<circle fill="#FFFAE6" cx="133.913" cy="361.7" r="0.653"/>
	<circle fill="#FFFAE6" cx="220.101" cy="517.1" r="0.653"/>
	<circle fill="#FFFAE6" cx="119.548" cy="236.336" r="0.653"/>
	<circle fill="#FFFAE6" cx="290.619" cy="229.806" r="0.653"/>
	<circle fill="#FFFAE6" cx="133.913" cy="440.053" r="0.653"/>
	<circle fill="#FFFAE6" cx="205.736" cy="352.559" r="0.653"/>
	<circle fill="#FFFAE6" cx="281.478" cy="511.877" r="0.653"/>
	<circle fill="#FFFAE6" cx="11.248" cy="446.576" r="1.306"/>
	<circle fill="#FFFAE6" cx="11.248" cy="305.541" r="1.306"/>
	<circle fill="#FFFAE6" cx="92.777" cy="281.389" r="1.306"/>
	<circle fill="#FFFAE6" cx="163.295" cy="579.129" r="1.306"/>
	<circle fill="#FFFAE6" cx="263.848" cy="331.012" r="1.306"/>
	<circle fill="#FFFAE6" cx="531.395" cy="86.652" r="1.958"/>
	<circle fill="#FFFAE6" cx="274.524" cy="7.123" r="1.959"/>
	<circle fill="#FFFAE6" cx="207.689" cy="85.182" r="1.958"/>
	<circle fill="#FFFAE6" cx="410.989" cy="171.012" r="1.306"/>
	<circle fill="#FFFAE6" cx="519.377" cy="33.895" r="1.306"/>
	<circle fill="#FFFAE6" cx="414.907" cy="88.741" r="1.306"/>
	<circle fill="#FFFAE6" cx="351.572" cy="52.829" r="0.653"/>
	<circle fill="#FFFAE6" cx="433.842" cy="88.088" r="0.653"/>
	<circle fill="#FFFAE6" cx="279.748" cy="212.146" r="0.653"/>
	<circle fill="#FFFAE6" cx="580.101" cy="135.1" r="0.653"/>
	<circle fill="#FFFAE6" cx="291.5" cy="64.582" r="0.653"/>
	<circle fill="#FFFAE6" cx="493.913" cy="58.053" r="0.653"/>
	<circle fill="#FFFAE6" cx="335.248" cy="96.576" r="1.306"/>
	<circle fill="#FFFAE6" cx="306.519" cy="180.152" r="1.306"/>
	<circle fill="#FFFAE6" cx="523.295" cy="197.129" r="1.306"/>
	<circle fill="#FFFAE6" cx="261.236" cy="195.823" r="1.306"/>
	<circle fill="#FFFAE6" cx="63.395" cy="124.652" r="1.958"/>
	<circle fill="#FFFAE6" cx="50.989" cy="171.012" r="1.306"/>
	<circle fill="#FFFAE6" cx="159.377" cy="33.895" r="1.306"/>
	<circle fill="#FFFAE6" cx="54.907" cy="88.741" r="1.306"/>
	<circle fill="#FFFAE6" cx="27.572" cy="20.829" r="0.653"/>
	<circle fill="#FFFAE6" cx="73.842" cy="88.088" r="0.653"/>
	<circle fill="#FFFAE6" cx="220.101" cy="135.1" r="0.653"/>
	<circle fill="#FFFAE6" cx="133.913" cy="58.053" r="0.653"/>
	<circle fill="#FFFAE6" cx="281.478" cy="129.877" r="0.653"/>
	<circle fill="#FFFAE6" cx="11.248" cy="64.576" r="1.306"/>
	<circle fill="#FFFAE6" cx="163.295" cy="197.129" r="1.306"/>
</g>
</svg>
