<?xml version="1.0" encoding="utf-8"?>
<!-- Generator: Adobe Illustrator 16.0.0, SVG Export Plug-In . SVG Version: 6.00 Build 0)  -->
<!DOCTYPE svg PUBLIC "-//W3C//DTD SVG 1.1//EN" "http://www.w3.org/Graphics/SVG/1.1/DTD/svg11.dtd">
<svg version="1.1" id="Calque_1" xmlns="http://www.w3.org/2000/svg" xmlns:xlink="http://www.w3.org/1999/xlink" x="0px" y="0px"
	 width="1160px" height="944px" viewBox="0 0 1160 944" enable-background="new 0 0 1160 944" xml:space="preserve">
<path fill="#3D378C" d="M1159.93,55.146C1156.979,33.45,1045.02,13.023,961.381,2c-7.52-0.991-17.268-1.504-28.709-1.504
	c-64.945,0-184.498,16.524-261.291,55.929c-104.085,53.41-194,34-310,64c-108.056,27.945-172.067,111.903-192,132
	c-19.735,19.898-100.25,91.75-121.552,110.775c-4.356,4.211-47.942,52.417-47.828,68.784l-0.001,0v180.942v100.637v51.512
	c0,16.5,12.358,35.434,27.463,42.074l283.816,124.777C326.384,938.566,352.242,944,368.742,944H791.26
	c16.5,0,42.358-5.434,57.463-12.074l283.814-124.777c15.104-6.641,27.463-25.574,27.463-42.074V612.926
	c0-16.5-12.358-35.434-27.463-42.074l-61.004-26.82C1119.856,528.42,1155.484,495.9,1160,488v-14.488V56.021V55
	C1160,55,1159.975,55.055,1159.93,55.146z M1055,735.955c0,16.5-12.58,34.899-27.955,40.888l-221.507,86.27
	C790.162,869.101,764.083,874,747.583,874H412.418c-16.5,0-42.58-4.899-57.955-10.888l-221.509-86.27
	C117.58,770.854,105,752.455,105,735.955v-93.91c0-16.5,12.58-34.899,27.955-40.888l221.509-86.27
	C369.839,508.899,395.918,504,412.418,504h335.165c16.5,0,42.579,4.899,57.955,10.888l221.507,86.27
	c15.375,5.988,27.955,24.388,27.955,40.888V735.955z"/>
<path fill="#13073F" d="M1076.888,597.41l-249.42-92.936C812.006,498.714,785.855,494,769.355,494H392.648
	c-16.5,0-42.661,4.687-58.134,10.415L83.135,597.47C67.661,603.198,55,621.385,55,637.885v102.23
	c0,16.5,12.661,34.687,28.135,40.415l251.379,93.055C349.987,879.313,376.148,884,392.648,884h376.708
	c16.5,0,42.65-4.714,58.112-10.475l249.42-92.936c15.462-5.761,28.112-23.975,28.112-40.475v-102.23
	C1105,621.385,1092.35,603.171,1076.888,597.41z M1055,735.955c0,16.5-12.58,34.899-27.955,40.888l-221.507,86.27
	C790.162,869.101,764.083,874,747.583,874H412.418c-16.5,0-42.58-4.899-57.955-10.888l-221.509-86.27
	C117.58,770.854,105,752.455,105,735.955v-93.91c0-16.5,12.58-34.899,27.955-40.888l221.509-86.27
	C369.839,508.899,395.918,504,412.418,504h335.165c16.5,0,42.579,4.899,57.955,10.888l221.507,86.27
	c15.375,5.988,27.955,24.388,27.955,40.888V735.955z"/>
<path fill="#DF4F4F" d="M778.78,906H381.22c-16.75,0-43.069-4.961-58.669-11.06L57.213,791.218
	C41.105,784.922,28,765.729,28,748.434V629.566c0-17.295,13.105-36.488,29.213-42.784L322.551,483.06
	c15.6-6.099,41.919-11.06,58.669-11.06h397.56c16.749,0,43.068,4.961,58.67,11.06l265.337,103.723
	c16.107,6.296,29.213,25.489,29.213,42.784v118.867c0,17.295-13.105,36.488-29.213,42.784L837.45,894.94
	C821.849,901.039,795.529,906,778.78,906z M381.22,476c-16.334,0-42,4.838-57.213,10.784L58.669,590.507
	C43.964,596.255,32,613.777,32,629.566v118.867c0,15.789,11.964,33.312,26.669,39.06l265.338,103.723
	C339.221,897.162,364.886,902,381.22,902h397.56c16.333,0,41.999-4.838,57.213-10.784l265.337-103.723
	c14.706-5.748,26.67-23.271,26.67-39.06V629.566c0-15.789-11.964-33.312-26.67-39.06L835.993,486.784
	C820.779,480.838,795.113,476,778.78,476H381.22z"/>
<path fill="#6ACABA" d="M1150,73.516c-33.663,58.107-154.77,235.989-399.576,285.867C635.581,382.781,513,343,378.437,396.113
	c-37.882,14.953-69.95,47.494-112.333,69.822l-28.872,12.693c-30.388,10.645-66.403,14.682-112.26,4.85
	c-48.669-10.436-95.113-34.485-114.926-45.628c-0.014-1.973-0.029-3.948-0.046-5.92c0.008-0.298,0.428-7.591,20.338-33.02
	c11.204-14.31,25.755-29.683,25.755-29.683c24.957-22.289,100.904-90.116,120.388-109.76c2.684-2.706,5.914-6.274,10.003-10.792
	c13.081-14.449,34.973-38.631,64.666-61.677c35.562-27.602,73.491-46.743,112.734-56.892c45.191-11.688,86.541-15.77,126.529-19.717
	c62.214-6.142,120.979-11.943,185.533-45.068c33.689-17.287,79.47-31.747,132.392-41.814c42.826-8.147,89.307-13.011,124.334-13.011
	c10.888,0,20.363,0.49,27.402,1.418c27.18,3.582,79.384,11.105,123.638,21.246c19.773,4.531,35.688,9.067,47.298,13.482
	c14.223,5.409,18.091,9.153,18.99,10.262c0,0,3.472,4.135,3.472,7.098S1150,73.516,1150,73.516z"/>
</svg>
