<?xml version="1.0" encoding="utf-8"?>
<!-- Generator: Adobe Illustrator 16.0.0, SVG Export Plug-In . SVG Version: 6.00 Build 0)  -->
<!DOCTYPE svg PUBLIC "-//W3C//DTD SVG 1.1//EN" "http://www.w3.org/Graphics/SVG/1.1/DTD/svg11.dtd">
<svg version="1.1" id="Calque_1" xmlns="http://www.w3.org/2000/svg" xmlns:xlink="http://www.w3.org/1999/xlink" x="0px" y="0px"
	 width="1500px" height="950px" viewBox="0 0 1500 950" enable-background="new 0 0 1500 950" xml:space="preserve">
<path fill="#120838" d="M886.402,48.448c-21.519,15.048-29.48,34.733-37.18,53.77c-8.104,20.037-15.759,38.963-39.311,52.901
	c-20.474,12.117-33.68,8.903-51.959,4.455c-18.533-4.51-41.599-10.124-76.554,1.862c-18.955,6.499-42.173,2.761-52.858-8.508
	c-7.45-7.856-8.499-18.601-3.119-31.935c13.966-34.616,10.119-54.8,7.028-71.019c-2.225-11.675-3.833-20.11,0.975-31.968
	C636.306,10.9,643.247,4.892,651.546,0h-25.401c-3.321,3.783-5.842,7.784-7.549,11.995c-6.58,16.23-4.183,28.81-1.864,40.975
	c2.978,15.625,6.057,31.783-6.149,62.037c-7.709,19.107-5.455,36.484,6.346,48.93c10.266,10.827,27.038,16.756,44.636,16.755
	c8.356,0,16.901-1.337,25.022-4.122c30.529-10.467,49.366-5.884,67.582-1.451c19.446,4.733,37.813,9.202,63.892-6.232
	c28.206-16.694,37.656-40.058,45.993-60.671c7.141-17.653,13.884-34.327,31.518-46.658C911.864,50.166,915.365,29.472,906.029,0
	h-16.883C896.965,21.916,898.014,40.328,886.402,48.448z"/>
<path fill="#0E072E" d="M888.695,51.726c-20.548,14.369-28.283,33.496-35.765,51.992c-8.365,20.682-16.266,40.216-40.98,54.843
	c-21.875,12.947-36.468,9.396-54.942,4.899c-18.966-4.616-40.463-9.848-74.312,1.76c-20.657,7.08-45.187,2.981-57.058-9.539
	c-8.501-8.966-9.859-21.479-3.926-36.184c13.526-33.525,9.801-53.069,6.808-68.773c-2.265-11.883-4.053-21.269,1.197-34.22
	c2.617-6.455,7.934-11.927,14.4-16.503h-12.432c-4.054,3.979-7.341,8.464-9.382,13.498c-6.137,15.138-3.953,26.594-1.642,38.724
	c2.942,15.439,6.277,32.938-6.369,64.282c-7.089,17.57-5.122,33.438,5.54,44.682c9.524,10.045,25.154,15.534,41.63,15.534
	c7.942,0,16.083-1.276,23.828-3.932c31.636-10.848,51.925-5.91,69.825-1.554c18.632,4.533,36.23,8.817,60.908-5.788
	c27.043-16.005,35.827-37.724,44.322-58.729c7.368-18.218,14.328-35.425,32.933-48.436C908.188,47.855,911.053,28.261,901.83,0
	h-8.486C900.794,21.415,902.657,41.961,888.695,51.726z"/>
<path fill="#501F43" d="M897.615,0c7.56,22.504,8.924,44.128-6.628,55.003c-41.486,29.013-28,78-77,107
	c-46.454,27.493-64.37-15.501-129.994,7c-35,12-84.262-5.718-65.991-51.003c22.997-57-5.204-70.411,8.008-103
	c2.318-5.717,6.479-10.696,11.612-15H185v362l574,86.994L1094,389l156-188V0H897.615z"/>
<path fill="#4C1E40" d="M980.021,31.43c-0.606,8.483,0.811,20.325,2.45,34.036c3.778,31.587,8.953,74.846-11.463,86.601
	c-40.865,23.529-43.002,44.775-45.07,65.322c-1.437,14.279-2.793,27.767-18.662,44.022c-10.255,10.505-25.529,14.448-42.316,14.447
	c-31.977-0.001-69.427-14.312-88.022-24.823c-22.803-12.888-97.75-40.451-184.533-72.366l-8.642-3.178
	c-26.823-9.866-44.09-20.763-51.319-32.388c-5.772-9.281-4.831-18.223-3.836-27.689c0.769-7.305,1.563-14.858-1.088-22.148
	c-5.946-16.35,8.265-61.691,16.755-88.781c0.478-1.526,0.945-3.016,1.404-4.485h-16.766c-13.261,42.327-23.622,78.956-16.431,98.734
	c1.39,3.821,0.844,9.005,0.213,15.007c-1.118,10.634-2.51,23.869,6.161,37.812c9.286,14.93,28.71,27.672,59.383,38.955l8.643,3.179
	c82.545,30.356,160.511,59.028,182.183,71.277c17.025,9.623,58.25,26.985,95.916,26.984c20.443,0,39.841-5.116,53.745-19.36
	c19.779-20.261,21.561-37.972,23.133-53.597c1.891-18.787,3.383-33.626,37.135-53.058c29.573-17.028,23.674-66.352,19.365-102.367
	c-1.479-12.361-2.875-24.036-2.378-30.996c0.61-8.534-0.794-20.024-3.765-32.57H975.65C978.911,12.48,980.563,23.83,980.021,31.43z"
	/>
<path fill="#491B3D" d="M984.01,31.715c-0.578,8.103,0.817,19.769,2.433,33.276c3.911,32.694,9.267,77.47-13.438,90.542
	c-39.086,22.504-41.12,42.713-43.086,62.256c-1.509,14.996-2.934,29.159-19.78,46.417c-9.976,10.219-30.436,20.778-71.253,13.052
	c-28.164-5.331-54.125-17.206-63.917-22.741c-22.52-12.729-100.93-41.564-183.945-72.093l-8.642-3.178
	c-62.107-22.844-59.793-44.842-57.752-64.25c0.754-7.169,1.466-13.94-0.869-20.363c-6.408-17.622,7.497-61.987,16.698-91.344
	c0.349-1.113,0.691-2.206,1.03-3.289h-8.383c-0.094,0.301-0.186,0.593-0.28,0.896c-10.093,32.202-23.916,76.305-16.583,96.471
	c1.705,4.688,1.115,10.297,0.432,16.792c-1.054,10.026-2.367,22.503,5.58,35.281c8.797,14.145,27.562,26.351,57.367,37.313
	l8.643,3.179c82.701,30.414,160.816,59.141,182.771,71.55c10.942,6.185,37.233,18.123,66.364,23.636
	c9.815,1.858,19.009,2.781,27.517,2.781c21.888,0,39.236-6.106,50.949-18.105c18.802-19.26,20.509-36.23,22.016-51.203
	c1.925-19.139,3.589-35.668,39.118-56.125c27.284-15.709,21.565-63.517,17.39-98.425c-1.567-13.101-2.92-24.415-2.396-31.756
	c0.592-8.296-0.894-19.746-3.957-32.285h-8.234C983.001,12.501,984.574,23.812,984.01,31.715z"/>
<path fill="#893249" d="M983.923,0c3.117,12.457,4.66,23.842,4.077,32c-2,28,21.513,107.129-13,127c-66,38-21,66-62,108
	c-35.959,36.836-117,4-140-9s-105-43-192-75s-53-65-61-87c-7.027-19.324,7.547-64.873,17.295-96H185v363l562,85.994L1067,408
	l183-239V0H983.923z"/>
<path fill="#843046" d="M1075.267,28.953c-2.433,9.19-7.229,18.112-12.782,28.442c-13.711,25.506-30.774,57.25-23.42,114.622
	c8.378,65.343-38.559,102.122-79.971,134.572c-4.937,3.868-9.6,7.522-14.133,11.197c-33.746,27.363-90.372,23.332-128.608,11.567
	c-9.394-2.891-26.054-12.283-47.145-24.175c-50.951-28.728-136.227-76.81-241.417-100.975
	c-98.001-22.514-104.933-57.284-111.636-90.909c-3.073-15.417-6.251-31.359-18.209-44.646c-21.996-24.44-15.313-32.285-2-47.913
	c5.013-5.884,10.65-12.51,15.105-20.735h-18.917c-2.636,3.629-5.516,7.013-8.367,10.359c-7.484,8.786-14.553,17.084-15.929,28.366
	c-1.494,12.249,4.294,25.158,18.216,40.626c9.018,10.021,11.517,22.556,14.411,37.07c3.532,17.719,7.536,37.803,24.742,56.475
	c19.002,20.62,51.386,35.961,99.002,46.9c102.932,23.646,183.697,69.185,237.141,99.318c22.789,12.849,39.254,22.133,50.298,25.531
	c20.642,6.351,43.04,9.749,63.892,9.749c2.536,0,5.053-0.051,7.537-0.152c29.574-1.207,53.786-9.292,71.962-24.029
	c4.43-3.591,9.042-7.205,13.924-11.031c42.551-33.342,95.507-74.837,85.974-149.2c-6.703-52.282,8.355-80.296,21.642-105.012
	c5.781-10.754,11.241-20.912,14.156-31.924c2.911-10.995,0.538-22.206-4.78-33.047h-18.32
	C1074.036,10.03,1077.611,20.093,1075.267,28.953z"/>
<path fill="#7D2E43" d="M1079.133,29.977c-2.553,9.646-7.452,18.76-13.125,29.312c-13.44,25.003-30.168,56.12-22.976,112.22
	c3.849,30.019-3.294,56.867-21.838,82.078c-16.356,22.239-39.349,40.255-59.634,56.15c-4.923,3.858-9.573,7.502-14.08,11.155
	c-34.97,28.354-93.127,24.34-132.304,12.284c-9.807-3.018-26.632-12.504-47.933-24.514
	c-50.763-28.622-135.723-76.525-240.349-100.561c-45.18-10.379-75.556-24.555-92.864-43.337
	c-14.922-16.192-18.418-33.729-21.799-50.688c-3.104-15.573-6.036-30.282-17.259-42.752c-24.339-27.044-15.481-37.442-2.072-53.183
	c4.458-5.233,9.431-11.076,13.537-18.141H397c-3.19,4.734-6.775,8.945-10.189,12.954c-13.787,16.185-26.81,31.472,2.216,63.722
	c9.753,10.837,12.477,24.5,15.36,38.964c3.429,17.203,7.316,36.7,23.761,54.545c18.438,20.008,50.153,34.96,96.957,45.713
	c103.497,23.776,187.825,71.324,238.21,99.732c22.57,12.727,38.878,21.921,49.51,25.192c12.065,3.713,35.426,9.575,62.583,9.575
	c2.472,0,4.977-0.049,7.506-0.151c28.694-1.172,52.113-8.957,69.606-23.14c4.455-3.612,9.079-7.236,13.976-11.073
	c41.754-32.717,93.717-73.436,84.473-145.543c-6.866-53.554,8.516-82.168,22.087-107.414c5.666-10.541,11.018-20.497,13.812-31.054
	c2.783-10.514,0.172-21.415-5.375-32.023h-9.079C1078.481,10.18,1081.647,20.478,1079.133,29.977z"/>
<path fill="#B3414E" d="M1076.95,0c5.805,10.396,8.696,21.001,6.05,31c-9,34-46,62-36,140s-54.103,118.218-97,153
	c-37,30-97,25-136,13c-34.421-10.592-140-91-288-125s-99.472-99.636-134-138c-34.503-38.336-6.296-48.344,9.79-74H185v355l616,121
	l274-84l179.333-183.334L1301.586,0H1076.95z"/>
<path fill="#A83D4A" d="M1203.051,76.532c-7.626,13.332-19.77,22.079-37.127,26.742c-39.177,10.525-44.801,41.709-50.754,74.724
	c-5.622,31.176-11.994,66.513-44.827,99.346c-20.193,20.194-68.737,54.173-120.795,84.555
	c-55.642,32.474-102.358,53.207-121.917,54.11c-69.848,3.206-140.053-19.501-186.65-39.131
	c-54.204-22.836-97.993-50.711-113.235-66.444c-20.828-21.5-52.739-24.227-89.688-27.384c-29.035-2.481-61.944-5.293-92.938-18.417
	c-30.425-12.883-73.702-51.052-107.097-159.733C225.813,65.167,218.265,26.68,214.122,0h-16.11
	c4.199,27.718,11.986,68.171,24.716,109.6c12.322,40.101,27.046,74.149,43.764,101.2c21.06,34.077,45.415,57.146,72.389,68.567
	c33.336,14.115,67.591,17.042,97.814,19.625c33.75,2.884,62.896,5.375,79.559,22.575c33.392,34.469,172.206,110.749,298.271,110.74
	c4.626,0,9.259-0.104,13.845-0.315c32.166-1.484,101.1-39.849,129.244-56.274c53.126-31.005,102.975-65.991,124.044-87.06
	c36.376-36.375,43.52-75.99,49.259-107.82c5.888-32.648,9.777-54.217,39.16-62.111c21.383-5.745,37.149-17.268,46.863-34.25
	c9.377-16.393,12.963-37.779,10.657-63.565c-0.651-7.29-1.731-14.358-2.974-20.911h-16.322
	C1212.956,23.172,1215.803,54.239,1203.051,76.532z"/>
<path fill="#9E3945" d="M1206.522,78.518c-8.067,14.105-21.378,23.734-39.561,28.619c-36.729,9.867-41.885,38.461-47.855,71.57
	c-5.726,31.755-12.216,67.746-45.935,101.464c-20.413,20.413-69.283,54.644-121.607,85.181
	c-57.018,33.276-103.279,53.707-123.749,54.651c-70.594,3.261-141.41-19.649-188.388-39.44
	c-54.697-23.043-99.031-51.321-114.555-67.347c-19.786-20.425-51.006-23.092-87.156-26.181
	c-29.333-2.507-62.579-5.348-94.158-18.719c-31.208-13.214-75.514-52.088-109.361-162.241C221.859,65.918,214.25,26.94,210.094,0
	h-8.055c4.185,27.459,11.914,67.42,24.513,108.425c12.222,39.775,26.805,73.512,43.343,100.272
	c20.616,33.357,44.351,55.895,70.546,66.987c32.75,13.867,66.669,16.766,96.596,19.323c34.549,2.952,64.387,5.502,82.091,23.777
	c15.593,16.096,58.918,44.602,117.195,69.153c44.641,18.807,110.528,40.38,177.836,40.379c4.67,0,9.35-0.104,14.026-0.319
	c48.833-2.255,207.671-99.194,250.644-142.167c35.49-35.49,42.511-74.42,48.151-105.702c5.938-32.924,10.227-56.712,42.059-65.264
	c20.315-5.458,35.264-16.35,44.429-32.373c8.964-15.669,12.377-36.268,10.146-61.223c-0.663-7.416-1.778-14.619-3.059-21.267h-8.173
	C1217.061,23.705,1219.761,55.375,1206.522,78.518z"/>
<path fill="#DF4F4F" d="M1216.487,0c7.463,38.137,9.473,95.429-48.487,111c-67,18-21.141,101.141-92,172
	c-43,43-200.785,138.82-248,141c-130,6-275-76-306-108c-34.664-35.783-109.961-14.344-180-44
	C253.628,234.581,217.232,72.932,206.065,0H2.597c19.558,22.158,46.725,46.209,84.407,71C214.448,154.845,138,266,149,314
	s44.248,127.681,101,171.008C343,556.015,985,510,985,510s205.44-204.481,265-212c62.562-7.898,5.195-157.874,53.562-200
	c25.574-22.274,144.209-44.042,191.911-98H1216.487z"/>
<g>
	<g>
		<g>
			<path fill="#DF4F4F" d="M693.983,119.2l-4.142,1.291c-0.295,2.067-1.594,3.684-3.398,4.3c-0.252-0.417-0.448-0.877-0.607-1.396
				c-0.953-3.12,0.695-5.879,3.402-6.706c0.134-0.041,5.326,1.455,5.326,1.455l4.221-1.2c-1.18-1.973-3.031-3.142-5.15-3.924
				l-5.121-1.812c-2.15-0.797-4.412-0.729-6.385-0.126c-4.955,1.515-7.873,6.246-6.303,11.384c0.953,3.12,3.098,5.124,6.023,6.085
				l5.561,1.894c1.865,0.607,3.822,0.688,6.047,0.007c3.99-1.22,6.596-4.899,6.528-9.143L693.983,119.2z"/>
			<path fill="#FFE8B0" d="M687.311,128.036c3.877-1.186,6.531-4.48,6.477-8.351l-3.531,1.079c-0.305,2.125-1.795,3.811-3.814,4.428
				c-2.844,0.869-5.92-0.574-6.922-3.854c-1.004-3.28,0.738-6.195,3.584-7.065c2.018-0.617,4.197-0.054,5.637,1.537l3.533-1.079
				c-2.119-3.24-6.164-4.487-10.039-3.302c-4.75,1.451-7.572,6.002-6.064,10.934S682.562,129.487,687.311,128.036z"/>
		</g>
		<g>
			<path fill="#DF4F4F" d="M812.301,86.052l-2.951-9.656l-5.98-2.115l-3.99,1.22l3.002,9.817c0.476,1.555,0.239,2.721-0.365,3.518
				l-2.852-9.326l-3.15-1.118l-2.828-0.997l-3.992,1.221l2.939,9.61c0.812,2.661,2.434,4.599,4.488,5.325l5.301,1.871
				c2.248,0.792,3.838,0.657,5.605,0.117C811.357,94.366,813.844,91.099,812.301,86.052z"/>
			<path fill="#FFE8B0" d="M805.965,83.996l-2.834-9.267l-3.303,1.01l2.896,9.473c0.863,2.821-0.424,4.52-2.213,5.066
				s-3.807-0.142-4.67-2.962l-2.895-9.473l-3.305,1.01l2.834,9.267c1.486,4.862,5.234,6.125,8.904,5.002
				C805.051,92.001,807.451,88.858,805.965,83.996z"/>
		</g>
		<g>
			<path fill="#DF4F4F" d="M829.643,73.979l-1.059-3.464l-5.98-2.115l-12.57,3.844l1.066,3.553l5.258,1.855l3.086,10.152
				l5.947,2.064l4.014-1.273l-4.053-13.281L829.643,73.979z"/>
			<polygon fill="#FFE8B0" points="819.682,87.226 822.984,86.216 818.932,72.958 823.221,71.647 822.365,68.849 810.484,72.481 
				811.34,75.28 815.629,73.969 			"/>
		</g>
		<g>
			<path fill="#DF4F4F" d="M722.732,112.081c-0.891-2.913-2.453-4.743-5.596-5.914l-5.601-2.03c-2.135-0.789-4.299-0.768-6.385-0.13
				c-5.024,1.536-7.853,6.314-6.303,11.383c0.869,2.845,2.903,4.944,5.258,5.793l6.038,2.146c1.947,0.709,4.064,0.739,6.334,0.045
				C721.457,121.853,724.268,117.104,722.732,112.081z M709.509,117.716c-0.255-0.421-0.473-0.886-0.63-1.398
				c-0.912-2.979,0.548-5.687,3.145-6.617c0.279,0.433,0.514,0.914,0.68,1.454C713.611,114.125,712.121,116.833,709.509,117.716z"/>
			<path fill="#FFE8B0" d="M705.256,104.352c-4.816,1.473-7.55,6.07-6.063,10.934c1.487,4.863,6.324,7.146,11.142,5.674
				c4.816-1.473,7.549-6.07,6.062-10.934S710.073,102.879,705.256,104.352z M709.464,118.114c-2.913,0.891-5.934-0.618-6.922-3.854
				c-0.989-3.233,0.67-6.175,3.584-7.065c2.913-0.891,5.933,0.62,6.921,3.854C714.035,114.284,712.377,117.224,709.464,118.114z"/>
		</g>
		<g>
			<path fill="#DF4F4F" d="M769.209,97.871c-0.891-2.913-2.453-4.743-5.596-5.914l-5.601-2.03c-2.135-0.789-4.299-0.768-6.385-0.13
				c-5.024,1.536-7.853,6.314-6.303,11.383c0.869,2.845,2.903,4.944,5.258,5.793l6.038,2.146c1.947,0.709,4.064,0.739,6.334,0.045
				C767.934,107.643,770.744,102.895,769.209,97.871z M755.985,103.506c-0.255-0.421-0.473-0.886-0.63-1.398
				c-0.912-2.979,0.548-5.687,3.145-6.617c0.279,0.433,0.514,0.914,0.68,1.454C760.088,99.915,758.598,102.623,755.985,103.506z"/>
			<path fill="#FFE8B0" d="M751.732,90.142c-4.816,1.473-7.55,6.07-6.063,10.934c1.487,4.863,6.324,7.146,11.142,5.674
				c4.816-1.473,7.549-6.07,6.062-10.934S756.55,88.669,751.732,90.142z M755.94,103.904c-2.913,0.891-5.934-0.618-6.922-3.854
				c-0.989-3.233,0.67-6.175,3.584-7.065c2.913-0.891,5.933,0.62,6.921,3.854C760.512,100.074,758.854,103.014,755.94,103.904z"/>
		</g>
		<g>
			<path fill="#DF4F4F" d="M740.584,105.005l-4.141,1.291c-0.296,2.067-1.594,3.684-3.399,4.3c-0.252-0.417-0.448-0.877-0.606-1.396
				c-0.954-3.12,0.695-5.879,3.402-6.706c0.133-0.041,5.326,1.455,5.326,1.455l4.221-1.2c-1.181-1.973-3.031-3.142-5.151-3.924
				l-5.121-1.812c-2.149-0.797-4.412-0.729-6.385-0.126c-4.955,1.515-7.873,6.246-6.303,11.384c0.954,3.12,3.098,5.124,6.024,6.085
				l5.56,1.894c1.865,0.607,3.822,0.688,6.047,0.007c3.991-1.22,6.597-4.899,6.528-9.143L740.584,105.005z"/>
			<path fill="#FFE8B0" d="M733.912,113.841c3.876-1.186,6.531-4.48,6.477-8.351l-3.532,1.079c-0.304,2.125-1.795,3.811-3.814,4.428
				c-2.844,0.869-5.919-0.574-6.922-3.854s0.739-6.195,3.584-7.065c2.019-0.617,4.197-0.054,5.637,1.537l3.533-1.079
				c-2.119-3.24-6.163-4.487-10.039-3.302c-4.749,1.451-7.571,6.002-6.063,10.934S729.163,115.292,733.912,113.841z"/>
		</g>
		<g>
			<path fill="#DF4F4F" d="M792.475,100.067l-5.111-16.723l-5.98-2.115l-3.99,1.221l2.029,6.642l-3.328-2.401l-5.836-2.059
				l-2.936,0.896l5.119,16.518l5.949,2.099l4.014-1.113l-2.008-6.509l3.17,2.295l5.949,2.127L792.475,100.067z"/>
			<polygon fill="#FFE8B0" points="772.68,101.825 775.984,100.815 772.898,90.722 783.623,98.48 786.053,97.737 781.145,81.679 
				777.842,82.688 780.92,92.759 770.203,85.024 767.771,85.768 			"/>
		</g>
	</g>
	<g>
		<g>
			<path fill="#DF4F4F" d="M818.194,52.179l-5.979-2.115l-4.048,1.237c0.649-0.843,1.583-1.481,2.726-1.831
				c1.354-0.414,2.646-0.533,4.309-0.265l0.258-3.59l-5.979-2.115c-1.844-0.364-3.734-0.237-5.639,0.345
				c-5.369,1.641-7.932,6.463-6.418,11.418c0.92,3.005,3.016,5.023,5.482,5.873l6.107,2.126c1.852,0.638,4.045,0.595,6.34-0.106
				c1.973-0.603,3.762-1.477,5.322-2.855L818.194,52.179z M809.153,56h0.002l0.492,0.611c-0.399,0.193-0.85,0.574-1.293,0.709
				c-0.094,0.029-0.185,0.146-0.277,0.172c-0.237-0.395-0.434-1.214-0.588-1.696L809.153,56z"/>
			<path fill="#FFE8B0" d="M809.095,43.794c-1.602-0.313-3.336-0.159-5.148,0.395c-5.16,1.578-7.629,6.221-6.178,10.969
				c1.508,4.932,6.277,7.161,11.439,5.583c1.928-0.589,3.656-1.419,5.076-2.681l-2.309-7.547l-6.561,2.006l0.855,2.799l3.258-0.996
				l0.828,2.707c-0.473,0.345-1.209,0.645-1.896,0.855c-3.074,0.939-6.289-0.31-7.342-3.75c-1.031-3.372,0.625-6.161,3.629-7.08
				c1.424-0.435,2.686-0.569,4.137-0.336L809.095,43.794z"/>
		</g>
		<g>
			<path fill="#DF4F4F" d="M700.305,97.907l-5.113-16.723l-3.15-1.118l-0.01,0.003l-2.818-1l-2.98,0.912l-3.193,8.835l-3.84-2.843
				L676.401,85l-0.03-0.022l-3.031-1.055l-2.982,0.911l5.119,16.408l3.121,0.758h0.003l2.825,1.342l4.014-1.062l-2.036-6.928
				L686.002,96h0.002l2.826,1.354l1.823-0.951l2.81,0.598h0.002l2.826,1.568L700.305,97.907z"/>
			<polygon fill="#FFE8B0" points="687.516,86.562 690.58,96.585 693.883,95.575 688.975,79.519 686.498,80.276 682.598,91.149 
				673.285,84.315 670.807,85.073 675.717,101.13 679.02,100.12 675.955,90.096 682.936,95.21 684.588,94.705 			"/>
		</g>
		<g>
			<path fill="#DF4F4F" d="M765.027,78.114l-5.111-16.723l-5.98-2.115l-3.99,1.221l2.029,6.642l-3.328-2.401l-5.836-2.059
				l-2.936,0.896l5.119,16.518l5.949,2.099l4.014-1.113l-2.008-6.509l3.17,2.295l5.949,2.127L765.027,78.114z"/>
			<polygon fill="#FFE8B0" points="745.232,79.872 748.537,78.862 745.451,68.769 756.176,76.527 758.605,75.784 753.697,59.726 
				750.395,60.735 753.473,70.806 742.756,63.071 740.324,63.814 			"/>
		</g>
		<g>
			<path fill="#DF4F4F" d="M776.945,74.471l-5.113-16.722l-5.979-2.115l-3.992,1.221l5.119,16.877l5.949,2.1L776.945,74.471z"/>
			
				<rect x="758.022" y="62.889" transform="matrix(-0.2924 -0.9563 0.9563 -0.2924 928.752 816.4258)" fill="#FFE8B0" width="16.791" height="3.454"/>
		</g>
		<g>
			<g>
				<path fill="#DF4F4F" d="M743.959,84.555l-0.248-0.651c-0.854-2.297-2.318-3.806-4.086-4.419l-0.082-0.025
					c1.447-1.495,1.908-3.518,1.256-5.651c-0.639-2.088-1.969-3.486-4.307-4.326l-4.77-1.684c-1.631-0.578-3.236-0.74-5.416-0.074
					l-5.871,1.795l5.119,16.546l5.949,2.099l4.014-1.127l-1.02-3.182l2.715,1.111l2.824,0.893L743.959,84.555z"/>
			</g>
			<path fill="#FFE8B0" d="M737.346,81.756c-0.98-2.384-2.523-3.817-4.406-4.32c1.613-1.447,2.182-3.526,1.523-5.684
				c-0.961-3.143-4.105-4.891-8.051-3.685l-5.527,1.689l4.908,16.058l3.305-1.01l-1.432-4.68l1.17-0.357
				c2.248-0.688,4.23,0.463,5.312,3.017l0.178,0.422l3.213-0.981L737.346,81.756z M728.98,76.715l-2.155,0.659l-1.796-5.873
				l2.156-0.658c1.812-0.555,3.359,0.076,3.949,2.002C731.723,74.772,730.793,76.16,728.98,76.715z"/>
		</g>
		<g>
			<path fill="#DF4F4F" d="M722.322,82.09c-0.891-2.913-2.453-4.743-5.596-5.914l-5.602-2.03c-2.135-0.789-4.299-0.768-6.385-0.13
				c-5.023,1.536-7.852,6.314-6.303,11.383c0.869,2.845,2.904,4.944,5.258,5.793l6.039,2.146c1.946,0.709,4.063,0.739,6.334,0.045
				C721.047,91.861,723.857,87.113,722.322,82.09z M709.098,87.725c-0.255-0.421-0.473-0.886-0.629-1.398
				c-0.912-2.979,0.547-5.687,3.144-6.617c0.28,0.433,0.515,0.914,0.68,1.454C713.2,84.134,711.71,86.842,709.098,87.725z"/>
			<path fill="#FFE8B0" d="M704.846,74.36c-4.816,1.473-7.551,6.07-6.064,10.934c1.488,4.863,6.324,7.146,11.143,5.674
				c4.815-1.473,7.549-6.07,6.062-10.934C714.499,75.171,709.662,72.888,704.846,74.36z M709.053,88.123
				c-2.912,0.891-5.934-0.618-6.922-3.854c-0.988-3.233,0.67-6.175,3.584-7.065s5.933,0.62,6.922,3.854
				C713.625,84.293,711.966,87.232,709.053,88.123z"/>
		</g>
		<g>
			<path fill="#DF4F4F" d="M798.926,67.751l-5.111-16.723l-5.98-2.115l-3.99,1.221l2.029,6.641l-3.328-2.401l-5.836-2.059
				l-2.936,0.897l5.119,16.518l5.949,2.098l4.014-1.113l-2.008-6.508l3.17,2.295l5.949,2.127L798.926,67.751z"/>
			<polygon fill="#FFE8B0" points="779.131,69.509 782.436,68.499 779.35,58.405 790.074,66.163 792.504,65.421 787.596,49.362 
				784.293,50.372 787.371,60.442 776.654,52.707 774.223,53.45 			"/>
		</g>
	</g>
	<g>
		<g>
			<path fill="#DF4F4F" d="M783.297,33.333c-0.898-2.936-2.746-4.879-5.289-5.807l-5.309-1.895
				c-2.285-0.831-4.494-0.833-7.018-0.062l-5.711,1.747l5.119,16.646l5.949,2.099l5.805-1.725
				C782.211,42.695,784.916,38.632,783.297,33.333z M772.618,36.968L771,31.675l1.718-0.525c0.216,0.379,0.407,0.797,0.556,1.279
				C773.84,34.282,773.516,35.823,772.618,36.968z"/>
			<path fill="#FFE8B0" d="M776.959,31.277c-1.557-5.093-5.963-6.956-11.172-5.363l-5.367,1.642l4.91,16.057l3.336-0.979
				l-0.012-0.038l2.043-0.624C775.904,40.38,778.523,36.394,776.959,31.277z M769.865,39.165l-2.066,0.633l-3.197-10.461
				l2.064-0.631c3.006-0.919,5.879,0.109,6.951,3.618C774.676,35.788,772.869,38.247,769.865,39.165z"/>
		</g>
		<g>
			<path fill="#DF4F4F" d="M714.264,53.712l-5.979-2.115l-4.048,1.236c0.649-0.842,1.583-1.48,2.726-1.83
				c1.354-0.414,2.646-0.533,4.309-0.266l0.258-3.59l-5.979-2.115c-1.844-0.364-3.734-0.237-5.639,0.345
				c-5.369,1.642-7.932,6.464-6.418,11.419c0.92,3.004,3.016,5.022,5.482,5.873l6.107,2.125c1.852,0.639,4.045,0.596,6.34-0.105
				c1.973-0.604,3.762-1.477,5.322-2.856L714.264,53.712z M705.223,57h0.002l0.492,0.877c-0.399,0.195-0.85,0.707-1.293,0.843
				c-0.094,0.028-0.185,0.214-0.277,0.237c-0.237-0.393-0.434-1.446-0.588-1.929L705.223,57z"/>
			<path fill="#FFE8B0" d="M705.164,45.327c-1.602-0.314-3.336-0.16-5.148,0.395c-5.16,1.578-7.629,6.221-6.178,10.969
				c1.508,4.932,6.277,7.16,11.439,5.582c1.928-0.588,3.656-1.418,5.076-2.68l-2.309-7.547l-6.561,2.006l0.855,2.799l3.258-0.996
				l0.828,2.707c-0.473,0.344-1.209,0.645-1.896,0.855c-3.074,0.939-6.289-0.311-7.342-3.751c-1.031-3.372,0.625-6.161,3.629-7.079
				c1.424-0.436,2.686-0.57,4.137-0.336L705.164,45.327z"/>
		</g>
		<g>
			<path fill="#DF4F4F" d="M738.449,47.045c-0.891-2.913-2.453-4.743-5.596-5.915l-5.602-2.029
				c-2.135-0.789-4.299-0.768-6.385-0.131c-5.025,1.537-7.854,6.314-6.303,11.384c0.869,2.845,2.902,4.944,5.258,5.792l6.037,2.146
				c1.947,0.709,4.064,0.74,6.336,0.046C737.172,56.815,739.984,52.067,738.449,47.045z M725.225,52.68
				c-0.256-0.421-0.473-0.886-0.631-1.399c-0.911-2.979,0.549-5.686,3.145-6.616c0.28,0.433,0.516,0.914,0.68,1.454
				C729.326,49.089,727.836,51.797,725.225,52.68z"/>
			<path fill="#FFE8B0" d="M720.971,39.315c-4.816,1.473-7.549,6.07-6.062,10.934s6.324,7.146,11.141,5.674s7.551-6.07,6.064-10.934
				C730.625,40.126,725.789,37.843,720.971,39.315z M725.18,53.077c-2.914,0.891-5.934-0.617-6.922-3.854
				c-0.99-3.232,0.67-6.174,3.584-7.064c2.912-0.891,5.932,0.619,6.922,3.854C729.752,49.247,728.092,52.187,725.18,53.077z"/>
		</g>
		<g>
			<path fill="#DF4F4F" d="M761.859,39.888c-0.891-2.914-2.453-4.743-5.596-5.914l-5.602-2.03c-2.135-0.79-4.299-0.769-6.385-0.13
				c-5.023,1.535-7.852,6.314-6.303,11.383c0.869,2.845,2.904,4.944,5.258,5.793l6.039,2.146c1.946,0.709,4.063,0.739,6.334,0.045
				C760.584,49.659,763.395,44.911,761.859,39.888z M748.635,45.522c-0.255-0.422-0.473-0.886-0.629-1.398
				c-0.912-2.979,0.547-5.687,3.144-6.617c0.28,0.433,0.515,0.914,0.68,1.453C752.737,41.931,751.247,44.64,748.635,45.522z"/>
			<path fill="#FFE8B0" d="M744.383,32.157c-4.816,1.473-7.551,6.07-6.064,10.934c1.488,4.864,6.324,7.147,11.143,5.675
				c4.815-1.473,7.549-6.071,6.062-10.935C754.036,32.968,749.199,30.685,744.383,32.157z M748.59,45.921
				c-2.912,0.891-5.934-0.619-6.922-3.854s0.67-6.176,3.584-7.066s5.933,0.621,6.922,3.854
				C753.162,42.091,751.503,45.03,748.59,45.921z"/>
		</g>
	</g>
</g>
<path fill="#FFFAE6" d="M1371.913,261.75c-22.656,15.076-220.194,163.305-328.25,191.25c-116,30-194.914,14.59-299,68
	c-90.321,46.347-543.078-13.574-586.576-132.068c0,0,17.937,86.893,34.745,124.068C234.47,605.099,170,556,170,606c0,0,0,1.236,0,2
	c0,2.583,1.959,5.236,6.723,9.763C213.472,652.684,381.271,803.065,508.747,819c144,18,336.137,30.407,408.958,83
	c90,65,188.979,49,225.979,37s181.493-68.845,184.385-73.39s1.6-7.032,1.6-14.537c0-135.073-1.002-146.073-36.938-278.986
	C1240.853,380.219,1371.913,261.75,1371.913,261.75z"/>
<g>
	<path fill="#FFE8B0" d="M1362.059,123.776c-21.396-20.272-3.18-44.961,23.383-57.863c27.653-13.432,56.105-26.958,56.105-26.958
		c0,0-130.547,16.076-152.547,68.086c-13.604,32.163-8.56,53.101-7,88.979c3,69-18.01,87.552-32,89.979
		c-40.933,7.101-112.928-3.399-183,62c-45.161,42.148-68.826,1.705-133,37c-100,55-227-62-329-33c-81.901,23.285-170,105-234,121
		s-91.594,4.604-121-15c-36-24-86-97-102-162c-1.254,29.641,4.667,77.334,15,112c30.79,103.297,140.112,195.586,295,216
		c50.202,6.616,199.679-8.653,290-55c104.086-53.41,194-34,310-64c108.056-27.945,172.067-111.903,192-132
		c19.735-19.898,100.25-91.75,121.552-110.775c4.357-4.214,7.743-8.637,11.042-13.205c18.997-26.292,33.051-51.765,31.963-68.081
		C1411.923,141.429,1390.556,150.775,1362.059,123.776z"/>
</g>
</svg>
