<?xml version="1.0" encoding="utf-8"?>
<!-- Generator: Adobe Illustrator 16.0.0, SVG Export Plug-In . SVG Version: 6.00 Build 0)  -->
<!DOCTYPE svg PUBLIC "-//W3C//DTD SVG 1.1//EN" "http://www.w3.org/Graphics/SVG/1.1/DTD/svg11.dtd">
<svg version="1.1" id="Calque_1" xmlns="http://www.w3.org/2000/svg" xmlns:xlink="http://www.w3.org/1999/xlink" x="0px" y="0px"
	 width="100px" height="100px" viewBox="0 0 100 100" enable-background="new 0 0 100 100" xml:space="preserve">
<g>
	<circle fill="#FF8CA7" cx="50" cy="50" r="49"/>
	<circle fill="#DF4F4F" cx="50" cy="28" r="16"/>
	<path fill="#FFFAE6" d="M50,16c0,4-16,8-16,8v8c0,0,6.25-9.75,16,0c9-10.5,16,0,16,0v-8C66,24,50,20,50,16z M51.854,26.861
		L50,25.676l-1.854,1.32l0.708-2.393L47,23h2.292L50,20.942L50.709,23H53l-1.854,1.627L51.854,26.861z"/>
	<path fill="#DF4F4F" d="M50,0C22.386,0,0,22.386,0,50s22.386,50,50,50s50-22.386,50-50S77.614,0,50,0z M50,3
		c25.916,0,47,21.084,47,47c0,11.814-4.392,22.616-11.615,30.882C77.824,66.447,78.188,56,78.188,56c0-6.627-5.436-12-12.062-12
		C59.498,44,54,49.373,54,56h-2l-1-3h-2l-1,3h-2c0-6.627-5.497-12-12.125-12c-6.627,0-12.062,5.373-12.062,12
		c0,0,0.364,10.447-7.197,24.883C7.392,72.616,3,61.814,3,50C3,24.084,24.084,3,50,3z"/>
	<path fill="#FFFAE6" d="M50,74c-9,10.5-16,0-16,0v8c0,0,16,4,16,8c0-4,16-8,16-8v-8C66,74,59.75,83.75,50,74z M50.709,83L50,85.059
		L49.292,83H47l1.854-1.627l-0.708-2.234L50,80.324l1.854-1.32l-0.709,2.393L53,83H50.709z"/>
	<g>
		<path fill-rule="evenodd" clip-rule="evenodd" fill="#FFFAE6" d="M71,49.207c-0.359,0.674-0.658,1.392-1.308,1.862
			c-0.353,0.255-0.717,0.441-1.184,0.442c-3.104,0.004-6.209,0.035-9.314,0.044c-0.376,0.001-0.622,0.221-0.891,0.414
			c-0.488,0.351-0.81,0.837-1.083,1.361c-0.75,1.439-1.5,2.88-2.251,4.319c-0.471,0.902-0.94,1.807-1.412,2.709
			c-0.039,0.074-0.092,0.141-0.17,0.257c-1.128-2.067-2.233-4.092-3.372-6.181c-1.127,2.088-2.219,4.112-3.346,6.201
			c-0.214-0.377-0.412-0.704-0.589-1.043c-0.757-1.449-1.502-2.903-2.261-4.351c-0.447-0.855-0.893-1.714-1.376-2.549
			c-0.281-0.485-0.734-0.816-1.23-1.073c-0.1-0.051-0.231-0.057-0.348-0.057c-3.083-0.023-6.166-0.053-9.248-0.053
			c-0.715,0-1.252-0.312-1.649-0.83c-0.379-0.493-0.65-1.067-0.969-1.605c0-0.022,0-0.044,0-0.066
			c0.065,0.003,0.131,0.009,0.196,0.009c4.176,0.019,8.353,0.027,12.527,0.064c0.879,0.008,1.694,0.309,2.178,1.088
			c0.638,1.03,1.198,2.108,1.788,3.167c0.329,0.588,0.65,1.182,1.002,1.82c1.117-2.07,2.203-4.084,3.321-6.158
			c1.134,2.084,2.232,4.102,3.347,6.148c0.098-0.156,0.179-0.271,0.244-0.394c0.77-1.417,1.531-2.838,2.306-4.251
			c0.504-0.918,1.327-1.399,2.338-1.416c3.388-0.052,6.776-0.05,10.165-0.067c0.862-0.005,1.726-0.007,2.588-0.011
			C71,49.076,71,49.141,71,49.207z"/>
		<path fill-rule="evenodd" clip-rule="evenodd" fill="#FFFAE6" d="M46.653,69.02c-0.129-0.271-0.249-0.546-0.39-0.811
			c-0.966-1.814-1.931-3.631-2.907-5.439c-0.407-0.754-0.823-1.503-1.269-2.234c-0.308-0.504-0.781-0.836-1.326-1.058
			c-0.086-0.036-0.192-0.029-0.289-0.03c-1.115-0.004-2.231-0.041-3.346,0c-1.062,0.039-1.721-0.532-2.246-1.338
			c-0.214-0.329-0.361-0.701-0.563-1.1c0.367,0,0.65,0,0.933,0c2.089,0,4.178-0.027,6.266,0.012c1.027,0.018,1.876,0.447,2.38,1.406
			c0.873,1.66,1.748,3.32,2.623,4.979c0.033,0.064,0.077,0.123,0.154,0.242c1.128-2.087,2.231-4.127,3.357-6.21
			c1.126,2.077,2.229,4.11,3.367,6.21c0.173-0.305,0.326-0.559,0.463-0.819c0.795-1.517,1.592-3.03,2.374-4.554
			c0.319-0.622,0.876-0.913,1.485-1.122c0.28-0.097,0.593-0.136,0.89-0.138c2.253-0.014,4.506-0.013,6.758-0.016
			c0.097,0,0.194,0,0.36,0c-0.141,0.314-0.236,0.6-0.388,0.852c-0.39,0.647-0.84,1.242-1.601,1.494
			c-0.142,0.047-0.294,0.086-0.441,0.088c-1.203,0.01-2.405,0.02-3.608,0.008c-0.337-0.004-0.604,0.119-0.875,0.289
			c-0.795,0.498-1.186,1.301-1.6,2.089c-0.514,0.978-1.033,1.95-1.555,2.923c-0.742,1.385-1.489,2.766-2.231,4.15
			c-0.019,0.035-0.012,0.084-0.017,0.127c-0.043,0-0.087,0-0.131,0c-0.02-0.051-0.035-0.104-0.061-0.152
			c-0.833-1.54-1.666-3.08-2.499-4.619c-0.223-0.41-0.444-0.821-0.69-1.276c-0.643,1.188-1.257,2.315-1.864,3.448
			c-0.465,0.863-0.922,1.732-1.383,2.6C46.74,69.02,46.697,69.02,46.653,69.02z"/>
		<path fill-rule="evenodd" clip-rule="evenodd" fill="#FFFAE6" d="M68.51,53.018c-0.365,0.908-0.79,1.692-1.599,2.212
			c-0.429,0.276-0.904,0.222-1.366,0.228c-1.988,0.027-3.978,0.035-5.966,0.052c-0.327,0.003-0.659-0.018-0.981,0.028
			c-0.526,0.076-1.046,0.199-1.562,0.301c0.077-0.148,0.185-0.363,0.297-0.576c0.226-0.43,0.432-0.872,0.686-1.285
			c0.383-0.625,0.881-0.989,1.699-0.977c2.753,0.045,5.508,0.018,8.261,0.018C68.14,53.018,68.299,53.018,68.51,53.018z"/>
		<path fill-rule="evenodd" clip-rule="evenodd" fill="#FFFAE6" d="M43.011,55.959c-0.753-0.486-1.599-0.457-2.436-0.46
			c-1.869-0.009-3.742-0.086-5.606,0.007c-1.603,0.08-2.616-0.58-3.215-2.007c-0.062-0.146-0.125-0.29-0.207-0.481
			c0.242,0,0.425,0,0.607,0c2.732,0,5.466,0.024,8.198-0.016c0.724-0.012,1.23,0.246,1.58,0.816
			c0.411,0.669,0.762,1.377,1.138,2.068C43.051,55.91,43.03,55.934,43.011,55.959z"/>
	</g>
</g>
</svg>
