<?xml version="1.0" encoding="utf-8"?>
<!-- Generator: Adobe Illustrator 16.0.0, SVG Export Plug-In . SVG Version: 6.00 Build 0)  -->
<!DOCTYPE svg PUBLIC "-//W3C//DTD SVG 1.1//EN" "http://www.w3.org/Graphics/SVG/1.1/DTD/svg11.dtd">
<svg version="1.1" id="Calque_1" xmlns="http://www.w3.org/2000/svg" xmlns:xlink="http://www.w3.org/1999/xlink" x="0px" y="0px"
	 width="100px" height="100px" viewBox="0 0 100 100" enable-background="new 0 0 100 100" xml:space="preserve">
<g>
	<circle fill="#6ACABA" cx="50" cy="50" r="49"/>
	<path fill="#B6E2D0" d="M26.749,93.14C33.667,96.877,41.585,99,50,99s16.333-2.124,23.252-5.86L82.397,58H17.603L26.749,93.14z"/>
	<g>
		<circle fill="#FFFAE6" cx="50" cy="45" r="35"/>
		<g>
			<path fill-rule="evenodd" clip-rule="evenodd" fill="#2A5CA7" d="M38.434,56.707c-0.33-0.389-0.632-0.782-0.96-1.127
				c-1.303-1.367-2.733-2.158-4.397-1.912c-1.457,0.217-2.629,1.473-2.966,3.189c-0.233,1.182-0.073,2.299,0.326,3.348
				c0.222,0.58,0.492,1.139,0.794,1.646c0.293,0.494,0.65,0.914,0.984,1.373c-0.038,0.041-0.059,0.074-0.068,0.07
				c-2.942-1.695-5.789-3.641-8.291-6.445c-1.149-1.287-2.17-2.748-2.907-4.552c-1.364-3.336-1.173-6.625,0.2-9.852
				c1.029-2.416,2.45-4.324,4.036-6.001c2.797-2.958,5.857-5.208,9.239-6.549c0.512-0.202,1.045-0.293,1.641-0.456
				c-0.164,0.614-0.305,1.095-0.422,1.585c-0.284,1.187-0.461,2.403-0.374,3.662c0.154,2.231,0.98,3.868,2.414,4.776
				c2.486,1.574,4.938,1.343,7.27-0.65c0.426-0.364,0.787-0.917,1.116-1.455c0.408-0.662,0.606-1.438,0.595-2.36
				c-0.033-2.551-0.011-5.103-0.011-7.655c0.048-0.016,0.097-0.032,0.146-0.047c0.592,1.456,1.186,2.912,1.749,4.296
				c0.516-0.073,0.983-0.19,1.449-0.191c0.467-0.001,0.934,0.114,1.472,0.188c0.557-1.364,1.15-2.824,1.746-4.283
				c0.028,0.011,0.058,0.021,0.084,0.031c0,0.165,0,0.33,0,0.496c0.023,2.502,0.036,5.004,0.081,7.506
				c0.008,0.436,0.099,0.901,0.235,1.292c0.425,1.206,1.129,2.049,1.973,2.639c1.96,1.369,4.004,1.594,6.076,0.605
				c2.484-1.188,3.567-4.097,2.935-7.75c-0.149-0.862-0.379-1.696-0.597-2.651c0.46,0.113,0.91,0.184,1.348,0.335
				c2.162,0.749,4.174,2.023,6.11,3.536c2.271,1.774,4.376,3.862,6.114,6.605c0.988,1.561,1.791,3.286,2.196,5.314
				c0.58,2.904,0.104,5.534-1.105,7.957c-0.794,1.594-1.795,2.909-2.895,4.079c-2.416,2.571-5.121,4.396-7.948,5.941
				c0.088-0.117,0.177-0.234,0.266-0.352c0.722-0.938,1.345-1.98,1.697-3.287c0.63-2.336-0.054-4.562-1.705-5.515
				c-1.328-0.767-2.643-0.554-3.937,0.188c-0.962,0.551-1.775,1.416-2.538,2.448c-0.449-0.468-0.885-0.929-1.327-1.382
				c-0.621-0.633-1.275-1.168-2.051-1.343c-0.979-0.22-1.854,0.192-2.68,0.876c-1.197,0.994-2.184,2.34-3.074,3.812
				c-0.848,1.399-1.646,2.856-2.494,4.339c-0.063-0.119-0.141-0.262-0.216-0.406c-1.078-2.088-2.186-4.148-3.565-5.865
				c-0.646-0.809-1.362-1.543-2.115-2.145c-1.24-0.991-2.516-0.891-3.733,0.172c-0.4,0.352-0.78,0.756-1.166,1.143
				C38.931,56.177,38.686,56.443,38.434,56.707z"/>
		</g>
	</g>
	<path fill="#2A5CA7" d="M50,3c25.916,0,47,21.084,47,47S75.916,97,50,97S3,75.916,3,50S24.084,3,50,3 M50,0C22.386,0,0,22.386,0,50
		s22.386,50,50,50s50-22.386,50-50S77.614,0,50,0L50,0z"/>
</g>
</svg>
