<?xml version="1.0" encoding="utf-8"?>
<!-- Generator: Adobe Illustrator 16.0.0, SVG Export Plug-In . SVG Version: 6.00 Build 0)  -->
<!DOCTYPE svg PUBLIC "-//W3C//DTD SVG 1.1//EN" "http://www.w3.org/Graphics/SVG/1.1/DTD/svg11.dtd">
<svg version="1.1" id="Calque_1" xmlns="http://www.w3.org/2000/svg" xmlns:xlink="http://www.w3.org/1999/xlink" x="0px" y="0px"
	 width="100px" height="100px" viewBox="0 0 100 100" enable-background="new 0 0 100 100" xml:space="preserve">
<g>
	<circle fill="#FF8CA7" cx="50" cy="50" r="49"/>
	<g>
		<g>
			<path fill="#FFFAE6" d="M68,24h-1l-3.399-5H36.4L33,24h-1c-2.2,0-4,1.575-4,3.5s1.8,3.5,4,3.5h36c2.2,0,4-1.575,4-3.5
				S70.2,24,68,24z"/>
			<path fill="#FFFAE6" d="M68,34H32c-1.1,0-1.898,0.894-1.774,1.987l4.549,40.025C34.898,77.105,35.9,78,37,78l0.976,2h24.05L63,78
				c1.1,0,2.102-0.895,2.226-1.987l4.549-40.025C69.898,34.894,69.1,34,68,34z"/>
		</g>
		<path fill="#DF4F4F" d="M67.748,62.016C67.611,63.107,66.6,64,65.5,64h-31c-1.1,0-2.112-0.893-2.248-1.984l-2.004-16.031
			C30.112,44.893,30.9,44,32,44h36c1.1,0,1.889,0.893,1.752,1.984L67.748,62.016z"/>
		<g>
			<path fill="#FFFAE6" d="M53.625,51.322c0-1.909-1.548-3.361-3.456-3.361c-1.909,0-3.542,1.596-3.542,3.505
				c0,1.908,1.373,3.504,3.373,3.504v2.074c0,0,2.805-3.54,2.819-3.558C52.819,53.486,53.625,52.355,53.625,51.322z"/>
			<path fill="#FFFAE6" d="M50.169,57.734c0,0-0.923,0.874-0.923,1.384c0,0.509,0.413,0.921,0.923,0.921
				c0.508,0,0.921-0.412,0.921-0.921C51.09,58.608,50.169,57.734,50.169,57.734z"/>
		</g>
	</g>
	<path fill="#DF4F4F" d="M50,3c25.916,0,47,21.084,47,47S75.916,97,50,97S3,75.916,3,50S24.084,3,50,3 M50,0C22.386,0,0,22.386,0,50
		s22.386,50,50,50s50-22.386,50-50S77.614,0,50,0L50,0z"/>
</g>
</svg>
