<?xml version="1.0" encoding="utf-8"?>
<!-- Generator: Adobe Illustrator 16.0.0, SVG Export Plug-In . SVG Version: 6.00 Build 0)  -->
<!DOCTYPE svg PUBLIC "-//W3C//DTD SVG 1.1//EN" "http://www.w3.org/Graphics/SVG/1.1/DTD/svg11.dtd">
<svg version="1.1" id="Calque_1" xmlns="http://www.w3.org/2000/svg" xmlns:xlink="http://www.w3.org/1999/xlink" x="0px" y="0px"
	 width="100px" height="100px" viewBox="0 0 100 100" enable-background="new 0 0 100 100" xml:space="preserve">
<g>
	<circle fill="#FF8CA7" cx="50" cy="50" r="49"/>
	<g>
		<path fill="#DF4F4F" d="M75,18H25c-1.1,0-2,0.9-2,2v60c0,1.1,0.9,2,2,2h50c1.1,0,2-0.9,2-2V20C77,18.9,76.1,18,75,18z
			 M71.258,77.293c-13.08-10.074-16.988-10.401-20.412,1.16c-1.916-11.904-10.848-8.878-21.582-3.281
			c6.884-9.07,7.023-14.087,2.142-17.466L26,60.334v-5.193c-0.669-0.231-1.372-0.455-2.109-0.674
			c0.752-0.064,1.446-0.152,2.109-0.253V51l8.491-5.13c-0.448-3.664-2.794-8.354-5.959-13.839c4.896,4.896,9.535,8.084,13.521,9.271
			l11.583-6.998c0.019-0.061,0.039-0.116,0.058-0.177c0.007,0.044,0.014,0.086,0.021,0.13L74,22v15l-17.81,8.658
			c1.37,2.075,3.854,1.796,9.441-1.117c-6.924,9.932-2.762,9.75,8.802,13.173C62.527,59.629,65.662,66.557,71.258,77.293z"/>
		<path fill="#FFFAE6" d="M61.826,54.172c-4.301-2.112-6.922-3.971-9.122-6.819l-11.653,5.665c-1.133,1.92-3.278,3.657-6.061,5.466
			c6.639,0,11.039,1.589,14.296,8.228c1.63-6.639,7.413-2.991,13.176,0.636C58.835,61.584,55.188,55.801,61.826,54.172z"/>
		<g>
			<path fill="#FFFAE6" d="M30.876,56.274c-0.233,0.115-0.461,0.172-0.686,0.169c-0.225-0.001-0.437-0.047-0.639-0.138
				c-0.201-0.09-0.381-0.217-0.543-0.381c-0.161-0.162-0.294-0.349-0.399-0.561c-0.132-0.265-0.206-0.559-0.22-0.883
				c-0.016-0.322,0.026-0.643,0.126-0.956c0.1-0.316,0.257-0.611,0.472-0.886c0.214-0.273,0.487-0.493,0.821-0.659
				c0.351-0.175,0.679-0.243,0.984-0.205c0.305,0.039,0.556,0.166,0.752,0.382l-0.636,1.025c-0.061-0.086-0.127-0.149-0.198-0.189
				c-0.072-0.041-0.146-0.063-0.223-0.07s-0.153,0-0.228,0.021c-0.076,0.018-0.145,0.044-0.21,0.076
				c-0.165,0.082-0.292,0.194-0.379,0.335c-0.088,0.142-0.145,0.297-0.17,0.46c-0.025,0.165-0.024,0.331,0.002,0.498
				c0.028,0.168,0.075,0.317,0.14,0.45c0.052,0.104,0.114,0.198,0.186,0.279c0.072,0.083,0.151,0.146,0.235,0.192
				c0.085,0.045,0.175,0.067,0.271,0.072c0.095,0.003,0.195-0.02,0.299-0.071c0.064-0.032,0.129-0.075,0.195-0.128
				c0.065-0.052,0.124-0.115,0.175-0.188c0.051-0.071,0.094-0.153,0.127-0.244c0.033-0.089,0.052-0.188,0.055-0.299l1,0.141
				c-0.013,0.181-0.059,0.359-0.138,0.537c-0.079,0.178-0.179,0.344-0.301,0.498s-0.26,0.294-0.412,0.419
				C31.183,56.097,31.03,56.197,30.876,56.274z"/>
			<path fill="#FFFAE6" d="M34.74,54.36c-0.276,0.138-0.548,0.207-0.815,0.21c-0.267,0.002-0.517-0.046-0.748-0.145
				s-0.441-0.241-0.627-0.431c-0.188-0.188-0.341-0.403-0.462-0.646c-0.168-0.34-0.258-0.703-0.27-1.094
				c-0.012-0.39,0.045-0.771,0.172-1.141c0.125-0.37,0.316-0.711,0.571-1.022c0.254-0.311,0.561-0.556,0.92-0.734
				c0.276-0.137,0.546-0.206,0.812-0.208c0.265-0.002,0.513,0.049,0.743,0.15c0.23,0.102,0.439,0.246,0.625,0.433
				c0.187,0.186,0.34,0.4,0.46,0.643c0.166,0.333,0.255,0.696,0.267,1.086s-0.044,0.771-0.168,1.14
				c-0.125,0.368-0.312,0.709-0.563,1.021S35.099,54.183,34.74,54.36z M34.438,53.158c0.201-0.1,0.353-0.234,0.457-0.402
				c0.104-0.169,0.171-0.352,0.201-0.546c0.031-0.196,0.029-0.392-0.007-0.59c-0.036-0.199-0.095-0.379-0.176-0.544
				c-0.058-0.115-0.126-0.22-0.206-0.311c-0.079-0.091-0.166-0.162-0.262-0.213c-0.096-0.052-0.201-0.077-0.316-0.077
				c-0.115-0.001-0.235,0.03-0.361,0.093c-0.196,0.098-0.346,0.229-0.451,0.397c-0.105,0.166-0.171,0.346-0.202,0.537
				c-0.029,0.191-0.027,0.387,0.007,0.587c0.035,0.199,0.091,0.381,0.172,0.543c0.058,0.118,0.127,0.222,0.206,0.312
				c0.08,0.092,0.168,0.165,0.265,0.218c0.097,0.054,0.202,0.082,0.315,0.086C34.193,53.249,34.313,53.221,34.438,53.158z"/>
			<path fill="#FFFAE6" d="M39.611,51.947c-0.31,0.154-0.615,0.23-0.915,0.227c-0.299-0.003-0.583-0.066-0.851-0.185
				c-0.268-0.12-0.51-0.29-0.725-0.507c-0.215-0.218-0.393-0.467-0.533-0.749c-0.176-0.353-0.274-0.744-0.294-1.177
				c-0.021-0.43,0.036-0.855,0.169-1.275c0.134-0.421,0.343-0.813,0.629-1.18c0.286-0.366,0.652-0.659,1.095-0.879
				c0.468-0.233,0.906-0.323,1.312-0.272c0.406,0.051,0.741,0.22,1.002,0.507l-0.848,1.369c-0.081-0.116-0.168-0.199-0.264-0.253
				c-0.096-0.054-0.195-0.085-0.297-0.094c-0.103-0.008-0.204,0.001-0.305,0.026c-0.1,0.026-0.193,0.061-0.279,0.104
				c-0.22,0.108-0.388,0.258-0.505,0.447c-0.117,0.19-0.192,0.395-0.227,0.613c-0.034,0.219-0.034,0.441,0.003,0.663
				c0.036,0.224,0.098,0.423,0.186,0.6c0.069,0.139,0.151,0.264,0.248,0.374c0.096,0.109,0.201,0.193,0.314,0.255
				c0.112,0.059,0.233,0.092,0.361,0.097c0.128,0.005,0.261-0.027,0.399-0.096c0.086-0.043,0.172-0.099,0.259-0.169
				c0.088-0.07,0.166-0.153,0.234-0.25c0.068-0.095,0.125-0.204,0.169-0.325c0.045-0.121,0.069-0.253,0.074-0.399l1.333,0.186
				c-0.017,0.241-0.078,0.481-0.184,0.717c-0.105,0.237-0.24,0.458-0.402,0.664c-0.163,0.207-0.345,0.393-0.549,0.559
				C40.021,51.711,39.816,51.845,39.611,51.947z"/>
			<path fill="#FFFAE6" d="M44.67,49.439c-0.354,0.176-0.703,0.266-1.046,0.269c-0.344,0.003-0.665-0.058-0.961-0.186
				c-0.298-0.127-0.566-0.311-0.808-0.554c-0.241-0.242-0.438-0.519-0.593-0.83c-0.217-0.436-0.333-0.904-0.347-1.406
				c-0.015-0.502,0.058-0.991,0.22-1.467c0.163-0.477,0.407-0.914,0.734-1.314c0.327-0.4,0.722-0.715,1.184-0.945
				c0.354-0.176,0.703-0.265,1.042-0.268c0.341-0.001,0.66,0.063,0.956,0.193c0.296,0.131,0.564,0.316,0.804,0.556
				c0.24,0.239,0.437,0.516,0.591,0.827c0.214,0.431,0.329,0.896,0.343,1.398c0.015,0.501-0.057,0.99-0.217,1.464
				c-0.16,0.476-0.401,0.913-0.724,1.315C45.525,48.894,45.132,49.209,44.67,49.439z M44.283,47.893
				c0.259-0.128,0.455-0.301,0.588-0.518c0.133-0.218,0.22-0.452,0.259-0.703c0.039-0.25,0.036-0.503-0.011-0.758
				c-0.046-0.256-0.121-0.488-0.225-0.698c-0.075-0.151-0.164-0.284-0.264-0.401c-0.103-0.116-0.215-0.208-0.338-0.274
				c-0.123-0.066-0.258-0.099-0.406-0.099c-0.148-0.001-0.303,0.038-0.463,0.119c-0.253,0.125-0.446,0.295-0.581,0.51
				c-0.135,0.214-0.222,0.445-0.259,0.692c-0.038,0.247-0.035,0.497,0.008,0.755c0.043,0.256,0.118,0.488,0.222,0.698
				c0.075,0.151,0.164,0.286,0.264,0.401c0.102,0.118,0.215,0.21,0.339,0.279c0.125,0.068,0.26,0.106,0.407,0.11
				S44.123,47.973,44.283,47.893z"/>
			<path fill="#FFFAE6" d="M46.318,40.632l1.361-0.676l3.218,2.431l-0.925-3.57l1.746-0.867l1.808,7.03l-1.379,0.685l-3.165-2.325
				l0.891,3.456l-1.747,0.867L46.318,40.632z"/>
			<path fill="#FFFAE6" d="M57.541,43.057c-0.427,0.212-0.824,0.333-1.189,0.364c-0.365,0.03-0.697-0.016-0.995-0.138
				c-0.299-0.122-0.564-0.308-0.798-0.555c-0.234-0.249-0.437-0.543-0.606-0.885c-0.166-0.335-0.301-0.706-0.405-1.113l-1.018-3.976
				l1.92-0.955l1.019,3.976c0.078,0.29,0.167,0.537,0.269,0.74c0.153,0.309,0.34,0.531,0.56,0.667
				c0.22,0.137,0.474,0.133,0.763-0.011c0.197-0.098,0.35-0.234,0.458-0.412c0.109-0.177,0.186-0.377,0.23-0.6
				s0.056-0.458,0.034-0.709c-0.022-0.251-0.065-0.505-0.126-0.761l-1.019-3.977l1.921-0.955l1.018,3.977
				c0.138,0.539,0.206,1.071,0.205,1.6c0.001,0.527-0.08,1.024-0.242,1.49c-0.161,0.466-0.406,0.891-0.735,1.274
				C58.473,42.483,58.054,42.804,57.541,43.057z"/>
			<path fill="#FFFAE6" d="M61.515,33.772l-2.053,1.019l-0.521-2.018l6.19-3.075l0.521,2.018l-2.042,1.015l1.647,6.418l-2.096,1.041
				L61.515,33.772z"/>
			<path fill="#FFFAE6" d="M69.456,32.707l-1.388-5.364l2.213-1.099l1.388,5.364L69.456,32.707z M70.448,36.571l-0.61-2.369
				l2.211-1.099l0.61,2.369L70.448,36.571z"/>
		</g>
		<g>
			<path fill="#FFFAE6" d="M42,22c-3.313,0-6,2.687-6,6s2.687,6,6,6s6-2.687,6-6S45.313,22,42,22z M42,32c-2.209,0-4-1.791-4-4
				s1.791-4,4-4s4,1.791,4,4S44.209,32,42,32z"/>
			<g>
				<path fill="#FFFAE6" d="M42.591,29.771c-0.176,0.136-0.348,0.234-0.516,0.297c-0.168,0.062-0.348,0.093-0.54,0.093
					c-0.224,0-0.432-0.039-0.624-0.117c-0.192-0.078-0.358-0.19-0.498-0.339c-0.14-0.147-0.25-0.328-0.33-0.54
					s-0.12-0.454-0.12-0.726c0-0.364,0.073-0.704,0.219-1.021c0.146-0.315,0.341-0.591,0.585-0.825
					c0.244-0.233,0.522-0.418,0.834-0.552s0.636-0.201,0.972-0.201c0.18,0,0.35,0.021,0.51,0.063
					c0.16,0.042,0.304,0.104,0.432,0.186c0.128,0.082,0.236,0.181,0.324,0.294c0.088,0.114,0.154,0.243,0.198,0.388l-1.008,0.666
					c-0.044-0.168-0.132-0.304-0.264-0.405c-0.132-0.103-0.284-0.153-0.456-0.153c-0.152,0-0.296,0.037-0.432,0.111
					c-0.136,0.074-0.257,0.174-0.363,0.3c-0.106,0.126-0.19,0.275-0.252,0.447s-0.093,0.355-0.093,0.552
					c0,0.252,0.06,0.454,0.18,0.606c0.12,0.151,0.29,0.228,0.51,0.228c0.312,0,0.62-0.14,0.924-0.42h-0.696l0.174-0.84h1.704
					l-0.486,2.268h-0.96L42.591,29.771z"/>
			</g>
		</g>
	</g>
	<path fill="#DF4F4F" d="M50,3c25.916,0,47,21.084,47,47S75.916,97,50,97S3,75.916,3,50S24.084,3,50,3 M50,0C22.386,0,0,22.386,0,50
		s22.386,50,50,50s50-22.386,50-50S77.614,0,50,0L50,0z"/>
</g>
</svg>
