<?xml version="1.0" encoding="utf-8"?>
<!-- Generator: Adobe Illustrator 16.0.0, SVG Export Plug-In . SVG Version: 6.00 Build 0)  -->
<!DOCTYPE svg PUBLIC "-//W3C//DTD SVG 1.1//EN" "http://www.w3.org/Graphics/SVG/1.1/DTD/svg11.dtd">
<svg version="1.1" id="Calque_1" xmlns="http://www.w3.org/2000/svg" xmlns:xlink="http://www.w3.org/1999/xlink" x="0px" y="0px"
	 width="700px" height="450px" viewBox="0 0 700 450" enable-background="new 0 0 700 450" xml:space="preserve">
<rect x="15" y="330" fill="#13073F" width="670" height="30"/>
<path fill="#FFFAE6" d="M688.02,19.315L361.98,0.685c-6.59-0.376-17.371-0.376-23.961,0L11.98,19.315C5.391,19.692,0,25.4,0,32v366
	c0,6.6,5.365,12.613,11.922,13.362l326.156,37.274c6.557,0.749,17.287,0.749,23.845,0l326.155-37.274
	C694.635,410.613,700,404.6,700,398V32C700,25.4,694.608,19.692,688.02,19.315z M680,348c0,6.627-5.373,12-12,12H32
	c-6.627,0-12-5.373-12-12V52c0-6.627,5.373-12,12-12h636c6.627,0,12,5.373,12,12V348z"/>
<g>
	<path fill="#13073F" d="M339,24c0,2.208-1.793,4-4.003,4c-2.204,0-3.997-1.792-3.997-4c0-2.207,1.793-4,3.997-4
		C337.207,20,339,21.793,339,24z"/>
	<circle fill="#DF4F4F" cx="350" cy="24" r="4"/>
	<circle fill="#13073F" cx="365" cy="24" r="4"/>
</g>
<g>
	<rect x="150" y="380" fill="#13073F" width="100" height="2"/>
	<rect x="150" y="386" fill="#13073F" width="100" height="2"/>
	<rect x="150" y="392" fill="#13073F" width="100" height="2"/>
	<rect x="150" y="398" fill="#13073F" width="100" height="2"/>
</g>
<g>
	<rect x="450" y="380" fill="#13073F" width="100" height="2"/>
	<rect x="450" y="386" fill="#13073F" width="100" height="2"/>
	<rect x="450" y="392" fill="#13073F" width="100" height="2"/>
	<rect x="450" y="398" fill="#13073F" width="100" height="2"/>
</g>
<g>
	<path fill="#13073F" d="M350,380c-22.092,0-40,17.909-40,40h15c0-13.807,11.192-25,25-25s25,11.193,25,25h15
		C390,397.909,372.094,380,350,380z"/>
	<path fill="#FFFAE6" d="M383.5,420h-2c0-17.369-14.131-31.5-31.5-31.5s-31.5,14.131-31.5,31.5h-2c0-18.472,15.028-33.5,33.5-33.5
		S383.5,401.528,383.5,420z"/>
	
		<rect x="313.788" y="403.995" transform="matrix(-0.7071 -0.7071 0.7071 -0.7071 285.5071 928.2502)" fill="#FFFAE6" width="42.425" height="2"/>
	<g>
		<path fill="#FFFAE6" d="M379.975,419c0.012,0.333,0.025,0.665,0.025,1h5v-1H379.975z"/>
		<path fill="#FFFAE6" d="M315,420h5c0-0.335,0.014-0.667,0.025-1H315V420z"/>
		<path fill="#FFFAE6" d="M349,385v5.025c0.333-0.012,0.665-0.025,1-0.025s0.667,0.016,1,0.025V385H349z"/>
		<path fill="#FFFAE6" d="M374.043,394.544l-3.553,3.553c0.486,0.456,0.958,0.929,1.414,1.414l3.553-3.553L374.043,394.544z"/>
		<path fill="#FFFAE6" d="M324.541,395.961l3.553,3.553c0.456-0.485,0.928-0.958,1.414-1.414l-3.553-3.553L324.541,395.961z"/>
		<path fill="#FFFAE6" d="M317.346,407.363l4.624,1.942c0.239-0.625,0.498-1.238,0.776-1.844l-4.626-1.942L317.346,407.363z"/>
		<path fill="#FFFAE6" d="M362.637,387.344l-1.942,4.625c0.625,0.239,1.238,0.498,1.843,0.776l1.943-4.626L362.637,387.344z"/>
		<path fill="#FFFAE6" d="M382.024,405.844l-4.646,1.896c0.272,0.606,0.531,1.222,0.763,1.849l4.64-1.894L382.024,405.844z"/>
		<path fill="#FFFAE6" d="M335.84,387.977l1.897,4.646c0.606-0.272,1.221-0.53,1.849-0.763l-1.895-4.641L335.84,387.977z"/>
	</g>
</g>
<path fill="#DF4F4F" d="M350,405c-8.271,0-15,6.729-15,15s6.729,15,15,15s15-6.729,15-15S358.271,405,350,405z M362.329,424.096
	l-2.769-1.163c0.189-0.62,0.322-1.267,0.389-1.933h3C362.867,422.073,362.657,423.11,362.329,424.096z M355.819,431.608
	l-1.135-2.776c0.585-0.311,1.136-0.675,1.643-1.09l2.12,2.119C357.649,430.546,356.768,431.131,355.819,431.608z M341.553,429.861
	l2.12-2.119c0.481,0.394,1,0.745,1.55,1.045l-1.16,2.764C343.159,431.084,342.318,430.518,341.553,429.861z M337.672,415.904
	l2.769,1.163c-0.19,0.62-0.322,1.267-0.39,1.933h-3C337.133,417.926,337.343,416.89,337.672,415.904z M344.18,408.393l1.133,2.776
	c-0.582,0.312-1.134,0.675-1.641,1.091l-2.12-2.12C342.35,409.455,343.232,408.87,344.18,408.393z M358.448,410.139l-2.12,2.12
	c-0.481-0.395-1-0.745-1.551-1.046l1.162-2.764C356.842,408.916,357.683,409.482,358.448,410.139z M362.949,419h-3
	c-0.062-0.631-0.188-1.243-0.363-1.834l2.788-1.139C362.679,416.976,362.87,417.972,362.949,419z M352.934,410.439
	c-0.621-0.19-1.268-0.323-1.934-0.39v-3c1.074,0.082,2.11,0.292,3.097,0.621L352.934,410.439z M349,410.051
	c-0.631,0.062-1.244,0.188-1.835,0.363l-1.138-2.787c0.947-0.306,1.944-0.497,2.973-0.576V410.051z M337.051,421h3
	c0.063,0.631,0.189,1.242,0.363,1.834l-2.788,1.138C337.321,423.024,337.13,422.028,337.051,421z M347.067,429.561
	c0.62,0.19,1.267,0.323,1.933,0.39v3c-1.074-0.082-2.11-0.292-3.096-0.621L347.067,429.561z M351,429.949
	c0.631-0.062,1.243-0.188,1.834-0.362l1.138,2.787c-0.946,0.305-1.942,0.496-2.972,0.575V429.949z M361.607,414.181l-2.775,1.134
	c-0.311-0.584-0.675-1.134-1.09-1.642l2.119-2.12C360.546,412.352,361.131,413.232,361.607,414.181z M340.138,411.554l2.12,2.12
	c-0.394,0.481-0.745,0.999-1.044,1.549l-2.764-1.16C338.916,413.159,339.482,412.318,340.138,411.554z M338.392,425.819l2.776-1.135
	c0.311,0.585,0.675,1.136,1.091,1.644l-2.12,2.119C339.455,427.649,338.87,426.768,338.392,425.819z M359.861,428.447l-2.12-2.119
	c0.395-0.482,0.746-1.001,1.046-1.552l2.764,1.161C361.085,426.841,360.518,427.683,359.861,428.447z"/>
<g>
	<path d="M350,450l338.078-38.638C694.635,410.613,700,404.6,700,398V32c0-6.6-5.391-12.318-11.979-12.708L480,7L350,450z"/>
</g>
</svg>
