<?xml version="1.0" encoding="utf-8"?>
<!-- Generator: Adobe Illustrator 16.0.0, SVG Export Plug-In . SVG Version: 6.00 Build 0)  -->
<!DOCTYPE svg PUBLIC "-//W3C//DTD SVG 1.1//EN" "http://www.w3.org/Graphics/SVG/1.1/DTD/svg11.dtd">
<svg version="1.1" id="Calque_1" xmlns="http://www.w3.org/2000/svg" xmlns:xlink="http://www.w3.org/1999/xlink" x="0px" y="0px"
	 width="1160px" height="1642px" viewBox="0 0 1160 1642" enable-background="new 0 0 1160 1642" xml:space="preserve">
<path fill="#FFFAE6" d="M585,378L0,457c0,0,0,272.643,0,275c0,52.5,72.453,308.744,316,356c134,26,23.543,310.633,79,509
	c26,93,291.624,21.289,378-52c66-56-0.169-262.497,40-426c17.22-70.095,253.422-221.299,267-231
	c56.562-40.413,80-107.017,80-107.017V430L585,378z"/>
<path fill="#FF8CA7" d="M1159.916,0c0,0-115.52,244.487-409.492,304.383c-114.843,23.398-301.491,9.732-371.987,36.73
	s-188.969,100.864-253.465,87.365C60.475,414.979,0,376.983,0,376.983v281.579c0,0,64.946,82.4,162.441,77.9
	s189.413-273.477,385.481-311.354c131.993-25.499,265.486,86.364,472.477,92.364C1064.109,518.74,1154,463.476,1160,452.977
	L1159.998,442L1159.916,0z"/>
</svg>
